<svg width="40" height="25" viewBox="0 0 40 25" fill="none" xmlns="http://www.w3.org/2000/svg">
<path d="M13.5616 4.38659C4.49699 5.7003 0.752921 14.8415 0.013959 19.2479C-0.478682 6.27505 12.1658 -1.85353 22.5112 0.363358C30.7876 2.13687 34.7999 6.494 36.141 8.98458L30.2293 12.1046C28.4503 8.98458 22.6262 3.07288 13.5616 4.38659Z" fill="#222222"/>
<path d="M31.7072 16.5384L38.1115 12.5973C39.1625 14.3051 39.8084 18.1258 40 19.8227H31.7072V16.5384Z" fill="#222222"/>
<path fill-rule="evenodd" clip-rule="evenodd" d="M38.7955 10.5208C38.575 10.0232 37.993 9.79861 37.4955 10.019L21.2686 17.2078C20.4911 16.1543 19.2409 15.471 17.8311 15.471C15.4731 15.471 13.5615 17.3826 13.5615 19.7406C13.5615 22.0986 15.4731 24.0101 17.8311 24.0101C20.1891 24.0101 22.1006 22.0986 22.1006 19.7406C22.1006 19.4954 22.08 19.2551 22.0403 19.0212L38.2937 11.8207C38.7912 11.6003 39.0159 11.0183 38.7955 10.5208Z" fill="#222222"/>
</svg>
