<svg width="48" height="48" viewBox="0 0 48 48" fill="none" xmlns="http://www.w3.org/2000/svg">
<path fill-rule="evenodd" clip-rule="evenodd" d="M24 47C36.7025 47 47 36.7025 47 24C47 11.2975 36.7025 1 24 1C11.2975 1 1 11.2975 1 24C1 36.7025 11.2975 47 24 47ZM24 44C35.0457 44 44 35.0457 44 24C44 12.9543 35.0457 4 24 4C12.9543 4 4 12.9543 4 24C4 35.0457 12.9543 44 24 44Z" fill="#222222"/>
<circle cx="23.9457" cy="13.0364" r="3.98182" fill="#222222"/>
<path fill-rule="evenodd" clip-rule="evenodd" d="M12.7638 20.0728C11.8601 20.0728 11.1274 20.8054 11.1274 21.7091C11.1274 22.6129 11.8601 23.3455 12.7638 23.3455H21.8184V26.2283L17.3469 37.4788C17.0131 38.3186 17.4233 39.2701 18.2632 39.6038C19.103 39.9376 20.0544 39.5274 20.3882 38.6876L24.0126 29.5684L27.6369 38.6876C27.9707 39.5274 28.9221 39.9376 29.762 39.6038C30.6018 39.2701 31.012 38.3186 30.6783 37.4788L26.182 26.1658V23.3455H35.0184C35.9221 23.3455 36.6547 22.6129 36.6547 21.7091C36.6547 20.8054 35.9221 20.0728 35.0184 20.0728H26.182H21.8184H12.7638Z" fill="#222222"/>
</svg>
