<svg id="Capa_1" data-name="Capa 1" xmlns="http://www.w3.org/2000/svg" viewBox="0 0 480.62 479.62"><defs><style>.cls-1{fill:none;}</style></defs><circle class="cls-1" cx="240.81" cy="239.81" r="239.81"/><polygon points="150.98 77.5 0 251.8 179.76 372.55 299.38 279.28 156.82 71.98 180.66 367.1 169.71 106.37 277.07 274.69 180.7 369.57 27.6 247.42 150.98 77.5"/><path d="M313.81,298.43c-7.33,0-12.57-10.13-14.55-20.84A81.94,81.94,0,0,1,298,261.87c0-37.36,17.93-92.89,42.37-103.72a12,12,0,0,1,5.24-1.28,11.32,11.32,0,0,1,2.79.47c6.29,1.74,8.85,9.43,9.08,15.36v2c0,25.61-25.61,52.39-47.61,65.31-2.09,11.64-3.49,21.42-4,25a97.94,97.94,0,0,0-.7,11.06c0,9.42,1.74,19.44,8.84,20,3.85-.23,6.87-4.43,9.32-8.62l11.06-19.2,2.09,1.16-11.17,19.21c-2.8,4.77-6.29,9.66-11.41,9.78Zm41.33-123.75v-1.86c-.24-5.59-2.68-11.87-7.45-13.27a8.85,8.85,0,0,0-1.75-.23c-3.61,0-7,2.79-9.31,5.82-12.81,16.76-22.12,51-26.2,71.82C331,224.39,355.14,198.78,355.14,174.68Z" transform="translate(0 -0.38)"/><path d="M325.34,355.23s-1.28-8.49-1.63-14.31l-.24-4.78c-.23-2.91-.35-6.05-.35-9.31,0-22.82,5.13-52.85,15.37-77.53,1.05-2.44,2.79-3.37,4.54-3.37a4.47,4.47,0,0,1,4.42,4.65A6.08,6.08,0,0,1,347,253c-11.18,26.54-18.51,59.48-19.21,91.61,4.08-30.27,10.13-61.46,25.73-88.82,3.26-5.94,9.54-15.48,15.71-18a9.17,9.17,0,0,1,4-.82,6.19,6.19,0,0,1,2,.23c5.59,1.52,7.45,7.57,7.45,14.56a62,62,0,0,1-4.42,21.76c6.75-.69,13.5-1.74,18-5.23l1.51,1.74c-5.35,4.19-13,5.12-20.72,5.94-3.72,7.68-11.76,16.76-19.21,16.76a8.59,8.59,0,0,1-5.12-1.63,6.25,6.25,0,0,1-2.56-3.26,4.55,4.55,0,0,1-.23-1.74c0-4.31,5-9.2,16.53-11.18,2.21-5.24,8-22.7,8.73-28.05a14.53,14.53,0,0,0,.12-2.22c0-3-.94-5.12-3.26-5.12a5.88,5.88,0,0,0-1.87.35c-5.58,2.33-11.75,11.88-14.66,17.11-17.23,30.15-22.7,65.31-26.78,98.6Zm31.08-66.58c3.72-1.52,7.1-7.57,8.84-11.18a23.54,23.54,0,0,0-9.42,3.61c-1.87,1.17-3.61,3.26-3.61,5.12l.11.93a2.72,2.72,0,0,0,2.8,1.75A2.34,2.34,0,0,0,356.42,288.65Z" transform="translate(0 -0.38)"/><path d="M391.57,277c0-11.3,5.48-26.54,18.75-35.74,2.56-1.75,6.87-3.61,10.36-3.61a5.84,5.84,0,0,1,3.84,1.16,5.77,5.77,0,0,1,1.51,4.43c0,12.57-10.36,22.35-17.92,22.35a7.36,7.36,0,0,1-3.61-.82c-1.87,4.19-6.06,14.9-6.06,20.72,0,4.08,2,5,5.59,5.24,7.92-.46,24-11.75,33.06-21.42l1.63,1.63c-5,5.94-14.32,12.81-24.33,18.51-3.26,1.87-6.75,3.61-10.48,3.61C396.93,292.61,391.57,289.46,391.57,277Zm32.13-33.76a3.82,3.82,0,0,0-.58-2.56,1.74,1.74,0,0,0-1.28-.47c-5.24,0-14,17.46-16.3,22.47a4.76,4.76,0,0,0,2.57.7C414.16,263.39,423.7,254.66,423.7,243.25Z" transform="translate(0 -0.38)"/><path d="M442.56,308.55c-3.6-.69-6.17-3.95-6.17-8.26,0-3,1.4-6.64,4.89-10.13-6.4-8.61-9.31-17.58-9.31-25.61,0-15.13,10.13-27,24.8-27h1.51a16.65,16.65,0,0,1,4.31.94,10.84,10.84,0,0,1,4.89,3.84,10,10,0,0,1,1.51,5.47c0,8.73-9.31,19-15.6,21.07l-.7-2.21c6.4-2.22,12.46-11.41,13.62-15.72a13.4,13.4,0,0,0,.35-2.91,7.54,7.54,0,0,0-4.89-7.33,12.49,12.49,0,0,0-3.61-.82h-.46c-5.94,0-15.37,7-15.37,21.65,0,6.29,1.75,13.86,6.05,22.94C457,278.17,469,271.19,478.3,268l.7,2.21c-9.08,3.15-21.07,10.13-29.57,16.3,1.75,3.73,4.19,7.69,4.19,12.11a13.69,13.69,0,0,1-.58,3.61,8.84,8.84,0,0,1-8.85,6.4Zm4.78-3.84a4,4,0,0,0,.93-2.68c0-3.84-4.31-8.38-5.59-10-2.91,2.91-4.07,5.82-4.07,8.27,0,3.14,1.86,5.47,4.42,5.94h.81A4.45,4.45,0,0,0,447.34,304.71Z" transform="translate(0 -0.38)"/><path d="M179.82,347.57" transform="translate(0 -0.38)"/></svg>