<svg xmlns="http://www.w3.org/2000/svg" viewBox="0 0 1080 1080"><defs><style>.cls-1{fill:#0c1725;}.cls-2,.cls-31{fill:#cd842a;}.cls-3{font-size:70.88px;}.cls-19,.cls-3,.cls-30,.cls-7,.cls-8,.cls-9{fill:#d0d1d1;}.cls-10,.cls-11,.cls-12,.cls-13,.cls-14,.cls-15,.cls-16,.cls-17,.cls-18,.cls-19,.cls-22,.cls-23,.cls-24,.cls-25,.cls-26,.cls-27,.cls-28,.cls-29,.cls-3,.cls-8{font-family:JosefinSansRoman-Light, JosefinSansRoman Light;font-weight:300;}.cls-4{letter-spacing:-0.01em;}.cls-5{letter-spacing:-0.01em;}.cls-6{letter-spacing:0em;}.cls-7,.cls-8{opacity:0.1;}.cls-8{font-size:51.98px;}.cls-9{font-size:75px;font-family:JosefinSansRoman-Bold, JosefinSansRoman Bold;}.cls-30,.cls-31,.cls-9{font-weight:700;}.cls-10{font-size:31.6px;}.cls-11,.cls-12,.cls-13,.cls-14,.cls-15,.cls-16,.cls-17,.cls-18,.cls-19,.cls-22,.cls-23,.cls-24,.cls-25,.cls-26,.cls-27,.cls-28,.cls-29{font-size:32px;}.cls-11{letter-spacing:-0.01em;}.cls-13{letter-spacing:0em;}.cls-14{letter-spacing:-0.01em;}.cls-15{letter-spacing:-0.01em;}.cls-16{letter-spacing:0.01em;}.cls-17{letter-spacing:0em;}.cls-18{letter-spacing:-0.03em;}.cls-20{letter-spacing:0.01em;}.cls-21{letter-spacing:0.01em;}.cls-22{letter-spacing:0em;}.cls-23{letter-spacing:0em;}.cls-24{letter-spacing:-0.01em;}.cls-25{letter-spacing:-0.01em;}.cls-26{letter-spacing:0.02em;}.cls-27{letter-spacing:0em;}.cls-28{letter-spacing:0em;}.cls-29{letter-spacing:0.01em;}.cls-30{font-size:86.84px;}.cls-30,.cls-31{font-family:Bodoni-16-Bold, "Bodoni 16-Bold";}.cls-31{font-size:304.79px;}.cls-32{fill:#ef7429;}.cls-33{fill:#fffefb;}.cls-34{fill:none;}</style></defs><g id="Capa_4" data-name="Capa 4"><rect class="cls-1" width="1080" height="1080"/></g><g id="Capa_5" data-name="Capa 5"><path class="cls-2" d="M750.51,457.9c-22.52-40.54-31.06-84.64-31.06-129.68,0-29.63,3.79-60,9.72-90.08-25.37,62.11-51.21,123.75-97,165.47-10.19,9.24-22.28,17.54-35.56,17.54a32.58,32.58,0,0,1-8.06-.95l-2.13-.71c-17.78-4.74-25.6-25.6-25.6-55,0-62.58,35.08-163.33,84.39-229.71l7.11-9.48c4.51-5.45,9-7.82,12.33-7.82,4.27,0,6.87,3.08,6.87,8.06v1.18c-.71,6.16-5,10.91-12.8,21.57-35.79,51-63,103.84-79.89,171.16-3.79,14.94-8.53,37.46-8.53,56.9,0,19.2,4.5,35.32,19.44,39.11a24,24,0,0,0,6.87,1c12.09,0,23-7.82,32.24-16.36,46.23-42,72.78-105.25,106.68-190.59,3.56-14.23,11.38-44.57,16.83-59,2.85-7.83,7.59-11.38,11.38-11.38,4.27,0,7.59,3.79,7.59,10.19a25.89,25.89,0,0,1-1.66,8.77c-.71,2.14-26.08,77.28-33.9,141.77A363,363,0,0,0,733,345.29c0,38.88,6.64,77.76,22.76,112.37l-4.27,2.13ZM722.3,94.48v-.24c6.63-25.12,26.31-42.9,26.31-42.9l.95-.24c3.55,0,13.51,8.53,13.51,11.61l-.24.72L726.09,97.09l-.24.47Z" transform="translate(0 -0.01)"/><path class="cls-2" d="M758.81,377.29a178.72,178.72,0,0,1-1.9-27.73c0-28.92,6.4-58.56,20.39-84.39a5.8,5.8,0,0,1,5.45-3.09c5.21,0,11.85,5.22,11.85,9.49a4.29,4.29,0,0,1-.47,1.65c-13.75,23.95-22.76,54.29-27.26,81.79a473.6,473.6,0,0,1,23.7-50.26c5-9.95,13.28-23.46,23.95-27.73a12.36,12.36,0,0,1,5-.95c6.64,0,13.28,4.5,15.65,14a63.72,63.72,0,0,1,1.9,16.12c0,18-5.93,35.08-5.93,50.25v3.08c.24,4.27.47,10.67,5,10.67h.24c2.37-.47,4.5-3.08,5.92-5.92a318.2,318.2,0,0,0,19-39.12l4.5,1.66a312,312,0,0,1-19.2,39.83c-2.37,3.79-5.22,7.82-9.72,8.29h-1.19c-10.43,0-22.75-15.41-22.75-37.93v-3.55c.94-18.26,9-38.17,9-46.94a7.21,7.21,0,0,0-.24-2.37,3.75,3.75,0,0,0-3.56-3.08l-1.89.47c-9.25,3.79-17.07,16.6-21.58,25.37-10.66,20.62-22.75,45.28-31.05,70.88Z" transform="translate(0 -0.01)"/><path class="cls-2" d="M874.49,374.21l-.71-.23c-5,0-11.14-3.8-14.7-13.75a76.85,76.85,0,0,1-2.84-22.05c0-23.94,6.88-52.39,8.77-59.27.71-2.13,3.32-3.08,6.4-3.08,5.45,0,12.09,2.85,12.09,6.64v.71c-9.24,34.61-15.41,57.61-15.41,71.36,0,5.45.95,9.48,3.08,12.32a9.91,9.91,0,0,0,3.8,2.61h.71a14.1,14.1,0,0,0,6.4-1.89c13-7.83,22.76-30.11,30.34-43.15l4,2.37c-5.21,9.48-22.52,47.41-40.3,47.41Zm-3.08-140.1a13.87,13.87,0,1,1,14,14A13.81,13.81,0,0,1,871.41,234.11Z" transform="translate(0 -0.01)"/><path class="cls-2" d="M926.17,374.92c-13.75-3.32-18.49-15.64-19.91-29.63l-.47-7.35c0-39.82,35.32-76.81,60.68-76.81a17.55,17.55,0,0,1,5,.48,18.69,18.69,0,0,1,12.09,11.14c2.37,5,2.61,10.67,2.85,15.41l-4.74.24c0-4.51-.48-9.49-2.37-13.75s-5.22-7.35-8.78-8.3l-1.89-.24a8.41,8.41,0,0,0-3.32.71c-11.85,4.75-44.81,61.64-44.81,92l.24,4.51c.24,3.32,2.37,5.92,6.4,6.87a11.61,11.61,0,0,0,4,.48,17.77,17.77,0,0,0,3.56-.24c12.8-2.61,46-28.45,67.8-46.46l2.61,4.26a544.31,544.31,0,0,1-53.34,39.36c-6.64,4-13.52,7.82-20.86,7.82A16.77,16.77,0,0,1,926.17,374.92Z" transform="translate(0 -0.01)"/><path class="cls-2" d="M1010.57,380.38c-5,0-7.11-.95-7.11-.95-8.06-2.85-12.33-14.7-12.33-29.16A79,79,0,0,1,1002.75,309a2.74,2.74,0,0,1,2.37-.95c2.84,0,7.11,2.14,10,4.51-7.11-8.77-10.19-17.55-10.19-25.37,0-12.8,7.82-22.28,16.83-22.28,3.56,0,7.35,1.42,11.14,5,7.35,7.11,14,26.07,14,46.46,0,2.84-.24,5.93-.47,9a68.49,68.49,0,0,0,10.43.95c5.92,0,13-.95,21.57-2.61l1,4.5a109.84,109.84,0,0,1-22.76,2.85,72,72,0,0,1-10.67-.95c-2.84,20.15-15.41,48.83-33.43,50.26Zm30.58-51.45a49.32,49.32,0,0,1-22.28-12.56l.23,1.19c0,.94-1.18,1.89-4.74,8.29-7.11,13-10.67,29.4-10.67,38.88a22.08,22.08,0,0,0,.95,6.64c1,2.13,2.14,4,4.74,4.26h1.43C1026.69,375.63,1038.54,347.66,1041.15,328.93Zm.95-11.14c0-19.2-6.4-47.88-20.86-47.88-5.46,0-9.25,5.45-10.67,10.66a29.13,29.13,0,0,0-.71,6.4c0,16.12,14,32.24,32,37.22Z" transform="translate(0 -0.01)"/><text class="cls-3" transform="translate(21.93 326.58)">me<tspan class="cls-4" x="94.63" y="0">r</tspan><tspan x="117.1" y="0">e</tspan><tspan class="cls-5" x="152.61" y="0">c</tspan><tspan class="cls-6" x="183.94" y="0">e un diseño</tspan></text><text class="cls-3" transform="translate(330.5 203.79)">Un día</text><polygon class="cls-7" points="902.96 930.32 837.14 1006.3 915.51 1058.95 967.66 1018.29 905.51 927.91 915.9 1056.57 911.13 942.9 957.93 1016.28 915.92 1057.65 849.18 1004.39 902.96 930.32"/><text class="cls-8" transform="translate(971.64 1023.82)">lpes</text><text class="cls-9" transform="translate(27.92 528.75)">·<tspan class="cls-10" x="15.52" y="0"> </tspan><tspan class="cls-11" x="22.22" y="0">C</tspan><tspan class="cls-12" x="40.4" y="0">ue</tspan><tspan class="cls-13" x="74.06" y="0">n</tspan><tspan class="cls-12" x="91.69" y="0">ta </tspan><tspan class="cls-14" x="124.49" y="0">r</tspan><tspan class="cls-12" x="134.64" y="0">e</tspan><tspan class="cls-15" x="150.67" y="0">g</tspan><tspan class="cls-14" x="168.37" y="0">r</tspan><tspan class="cls-12" x="178.51" y="0">esi</tspan><tspan class="cls-13" x="214.7" y="0">v</tspan><tspan class="cls-12" x="229.96" y="0">a</tspan></text><text class="cls-9" transform="translate(152 593.1)">·<tspan class="cls-10" x="15.52" y="0"> </tspan><tspan class="cls-16" x="22.22" y="0">G</tspan><tspan class="cls-12" x="43.15" y="0">ale</tspan><tspan class="cls-17" x="82.16" y="0">r</tspan><tspan class="cls-12" x="92.75" y="0">ía de </tspan><tspan class="cls-18" x="163.31" y="0">F</tspan><tspan class="cls-12" x="177.9" y="0">o</tspan><tspan class="cls-15" x="195.47" y="0">t</tspan><tspan class="cls-12" x="205.87" y="0">os</tspan></text><text class="cls-19" transform="translate(624.89 553.1)"><tspan class="cls-20">D</tspan><tspan class="cls-21" x="21.76" y="0">esde</tspan><tspan x="85.82" y="0" xml:space="preserve"> :</tspan></text><text class="cls-9" transform="translate(28.57 656.73)">·<tspan class="cls-10" x="15.52" y="0"> </tspan><tspan class="cls-17" x="22.22" y="0">R</tspan><tspan class="cls-12" x="39.57" y="0">e</tspan><tspan class="cls-15" x="55.6" y="0">g</tspan><tspan class="cls-12" x="73.29" y="0">ist</tspan><tspan class="cls-14" x="104.05" y="0">r</tspan><tspan class="cls-12" x="114.19" y="0">o de </tspan><tspan class="cls-15" x="179.4" y="0">c</tspan><tspan class="cls-12" x="193.55" y="0">onfi</tspan><tspan class="cls-17" x="245.61" y="0">r</tspan><tspan class="cls-22" x="256.2" y="0">maciones</tspan></text><text class="cls-9" transform="translate(152 721.23)">·<tspan class="cls-10" x="15.52" y="0"> </tspan><tspan class="cls-23" x="22.22" y="0">M</tspan><tspan class="cls-12" x="48.05" y="0">úsica de </tspan><tspan class="cls-24" x="163.24" y="0">f</tspan><tspan class="cls-12" x="172.17" y="0">ondo</tspan></text><text class="cls-9" transform="translate(152 849.91)">·<tspan class="cls-10" x="15.52" y="0"> </tspan><tspan class="cls-25" x="22.22" y="0">C</tspan><tspan class="cls-12" x="40.43" y="0">ódigo de </tspan><tspan class="cls-14" x="166.64" y="0">v</tspan><tspan class="cls-12" x="181.71" y="0">estime</tspan><tspan class="cls-13" x="271.21" y="0">n</tspan><tspan class="cls-12" x="288.84" y="0">ta</tspan></text><text class="cls-9" transform="translate(28.57 913.77)">·<tspan class="cls-10" x="15.52" y="0"> </tspan><tspan class="cls-25" x="22.22" y="0">C</tspan><tspan class="cls-12" x="40.43" y="0">ompa</tspan><tspan class="cls-26" x="118.32" y="0">r</tspan><tspan class="cls-15" x="129.55" y="0">t</tspan><tspan class="cls-12" x="139.95" y="0">e tu his</tspan><tspan class="cls-15" x="235.69" y="0">t</tspan><tspan class="cls-22" x="246.09" y="0">o</tspan><tspan class="cls-17" x="263.66" y="0">r</tspan><tspan class="cls-27" x="274.25" y="0">ia de amor</tspan></text><text class="cls-9" transform="translate(28.57 786.66)">·<tspan class="cls-10" x="15.52" y="0"> </tspan><tspan class="cls-12" x="22.22" y="0">Ubicación y enla</tspan><tspan class="cls-15" x="240.94" y="0">c</tspan><tspan class="cls-12" x="255.08" y="0">e a </tspan><tspan class="cls-28" x="300.11" y="0">G</tspan><tspan class="cls-27" x="320.94" y="0">oogle </tspan><tspan class="cls-29" x="404.33" y="0">M</tspan><tspan class="cls-12" x="430.25" y="0">aps</tspan></text><text class="cls-30" transform="translate(624.89 757.1)">$</text><text class="cls-31" transform="translate(678.27 823.64)">45</text></g><g id="Capa_6" data-name="Capa 6"><path class="cls-32" d="M641.77,41q-25,.13-49.95.43a7.69,7.69,0,0,0,3.87-4.72c1.29-4.72-2.3-11.41-7.77-10.85-4.34.44-6.43,6.44-2,8.29,1.08.45,1.78-1.13,1.08-1.86q-1.72-4.32,2.19-3.75a5.32,5.32,0,0,1,3,2.41,6.86,6.86,0,0,1,1.08,4c-.21,2.87-2.55,4.68-5.25,5.07-5.33.78-8.65-4-9.69-8.65a10,10,0,0,0-.29-1.72c-2.26-9.14-11.19-15.78-20.41-16.31a21.74,21.74,0,0,0-14.59,4.8c-7.24-6.27-18.45-6.78-26.63-1.94-6.09,3.6-10.3,10.45-9.55,17.29a.57.57,0,0,0-.38.6,9,9,0,0,1-4.18,8.5l-7.07.09A5.58,5.58,0,0,1,492,38.1c-.09-2,1.45-4.43,3.67-4.42a3.23,3.23,0,0,1,2.9,4.2c-.46,1.44,1.8,2,2.26.62a5.55,5.55,0,0,0-6.23-7.11c-4.46.87-6.25,6.23-4.28,10a10.16,10.16,0,0,0,.86,1.36l-8.73.11c-15.26.2-30.53.18-45.78.78a1.27,1.27,0,0,0,0,2.53c19.49.29,39-.08,58.51-.43a9.59,9.59,0,0,0,6.32-.12q7.83-.13,15.65-.24l79-1q22.8-.29,45.6-.71A1.32,1.32,0,0,0,641.77,41ZM506,42.55A9.14,9.14,0,0,0,508.16,38a13.06,13.06,0,0,0,.66,1.29,11.21,11.21,0,0,0,2.84,3.21Zm20.57-.28a9,9,0,0,0,2-5c.41-3.84-1.75-7.6-5.76-8.2a6.68,6.68,0,0,0-7.69,4.73c-.22.81.92,1.08,1.22.34,1.18-2.91,5.24-4,7.89-2.4,3.56,2.16,2.46,7.45-.19,9.76a10.21,10.21,0,0,1-1,.77l-7.49.1a13.25,13.25,0,0,1-6.41-10.37c-.38-14.5,18.58-20.37,29.51-14.27a18.17,18.17,0,0,1,2.72,1.9,22.37,22.37,0,0,0-5.27,7.7c-1.7,4.19-2.39,9.68.59,13.49a8.55,8.55,0,0,0,1.23,1.25Zm14.42-1c-4.61-1.56-4.53-7.5-3.45-11.34A19,19,0,0,1,543,21.22a18.07,18.07,0,0,1,5,12.57C547.85,37.58,545.85,43,541,41.32Zm28.62.39-2.76,0A6.93,6.93,0,0,1,564,40.48c-4.56-3.41-2.84-10.79,3.26-10.94a1.18,1.18,0,0,0,0-2.36c-8.16.15-10.67,9.78-5.42,14.62L547.29,42c6-5.62,2.19-17-2.55-22.24a20.13,20.13,0,0,1,21.86-1.28c5.78,3.38,12.25,11.86,8.65,18.8A8.5,8.5,0,0,1,569.63,41.71Zm5.06-.06A12.78,12.78,0,0,0,578,35.88a10.73,10.73,0,0,0,4.8,5.68Z" transform="translate(0 -0.01)"/><path class="cls-32" d="M611.38,502.74q-16.15-.32-32.32-.51l-56-.71c-3.7,0-7.39-.1-11.09-.17a6.82,6.82,0,0,0-4.48-.08c-13.82-.25-27.66-.51-41.47-.31a.9.9,0,0,0,0,1.8c10.81.43,21.63.41,32.45.55l6.18.08a8.28,8.28,0,0,0-.61,1c-1.39,2.67-.13,6.48,3,7.09a3.93,3.93,0,0,0,4.41-5c-.32-1-1.92-.58-1.6.44a2.29,2.29,0,0,1-2.06,3c-1.57,0-2.66-1.74-2.6-3.13a4,4,0,0,1,2.35-3.26l5,.07a6.34,6.34,0,0,1,3,6,.38.38,0,0,0,.27.42c-.54,4.85,2.45,9.71,6.76,12.26,5.8,3.43,13.75,3.07,18.88-1.37a15.49,15.49,0,0,0,10.34,3.4c6.54-.38,12.87-5.09,14.47-11.56a7.22,7.22,0,0,0,.2-1.22c.74-3.31,3.09-6.69,6.87-6.14a4,4,0,0,1,3.72,3.6,4.77,4.77,0,0,1-.76,2.82,3.8,3.8,0,0,1-2.14,1.71q-2.77.4-1.55-2.66c.5-.52,0-1.64-.77-1.32-3.16,1.32-1.68,5.56,1.39,5.88,3.88.4,6.43-4.34,5.51-7.69A5.47,5.47,0,0,0,576,504.3q17.7.19,35.4.31A.94.94,0,0,0,611.38,502.74Zm-92.22.85a8,8,0,0,0-2,2.27c-.17.3-.33.61-.47.91a6.4,6.4,0,0,0-1.51-3.24Zm18.59.25a6,6,0,0,0-.87.88c-2.11,2.7-1.62,6.59-.42,9.56a16,16,0,0,0,3.74,5.46,12.1,12.1,0,0,1-1.93,1.34c-7.75,4.33-21.19.17-20.92-10.11a9.41,9.41,0,0,1,4.55-7.35l5.31.07a7,7,0,0,1,.73.55c1.88,1.64,2.65,5.38.13,6.92a4,4,0,0,1-5.59-1.7c-.21-.53-1-.34-.87.23a4.75,4.75,0,0,0,5.46,3.36,5.06,5.06,0,0,0,4.08-5.81,6.41,6.41,0,0,0-1.4-3.51Zm7.13,5.9a12.79,12.79,0,0,1-3.54,8.91,13.5,13.5,0,0,1-3.82-6.21c-.77-2.72-.82-6.93,2.44-8C543.39,503.24,544.81,507.05,544.88,509.74Zm19.35-2.47c2.55,4.92-2,10.94-6.13,13.33a14.27,14.27,0,0,1-15.49-.91c3.36-3.72,6.06-11.78,1.81-15.76l10.34.13c-3.72,3.43-1.94,10.26,3.84,10.36a.84.84,0,0,0,0-1.67,4.24,4.24,0,0,1-2.31-7.75,4.85,4.85,0,0,1,2-.9l2,0A6,6,0,0,1,564.23,507.27Zm5.34-3a7.58,7.58,0,0,0-3.4,4,9.11,9.11,0,0,0-2.33-4.09Z" transform="translate(0 -0.01)"/><path class="cls-33" d="M410.34,218.45a15.87,15.87,0,0,1-2.24-8.16,13.31,13.31,0,0,1,1.46-6.21c1.75-3.31,4.76-5.44,7.28-7C431.22,188,448.8,186,466.38,186l8.35.1-.1,1.94c-2.81-.1-5.73-.1-8.54-.1-17.1,0-34.29,1.85-48.27,10.69-2.24,1.45-5.05,3.49-6.51,6.31a10.78,10.78,0,0,0-1.26,5.34,14.81,14.81,0,0,0,1.94,7.19c3.4,5.92,13.3,11.65,27.19,11.65,12.24,0,27.59-4.46,44.39-17.28,12.82-9.72,28.94-27.3,30.11-43.32v-1.46c0-7.77-3.7-15.15-11.85-17.28a33.43,33.43,0,0,0-7.77-.88,57.58,57.58,0,0,0-21.27,4.27c-7.19,4.08-8.45,3.6-14.09,7.87l-.77-1.07c-4.57,13.31-7.87,24.48-8.06,25.55l-1.95-.39.1-.39c1.36-18.55,7.19-40.79,13.4-56.14a2.82,2.82,0,0,1,2.82-1.65c2.14,0,4.56,1.56,4.56,3.5l-.19,1c-3.5,8.74-6.8,17.48-10.2,27.19l.39-.19c9.62-6.22,43.71-43.51,47.69-50.6a14,14,0,0,0,1.94-6.51,6.3,6.3,0,0,0-3.59-5.92,17.54,17.54,0,0,0-7.68-1.46c-11,0-29.52,6.22-48.07,27.78-5.44,6.31-12.72,16-13.69,27.19l-1.95-.19c1.07-11.66,8.55-21.66,14.18-28.27C466.38,98.6,485.51,92,497.16,92a19.59,19.59,0,0,1,8.55,1.65,12.56,12.56,0,0,1,6.8,11.46,17.79,17.79,0,0,1-.78,4.85C509.3,118,497.36,136.58,479.29,149a58.87,58.87,0,0,1,14.77-1.94,31.67,31.67,0,0,1,8.25.87A20.67,20.67,0,0,1,515,157.36a24.85,24.85,0,0,1,3.69,13.31c0,17-14.86,36.71-29.92,48.17-15.93,11.95-30.88,16.32-43.41,16.32C428.3,235.16,415.58,227,410.34,218.45Z" transform="translate(0 -0.01)"/><path class="cls-33" d="M532.22,191.94a34.24,34.24,0,0,1,8.45-22.15c1.36-1.65,4.46-3.69,4.46-6.12,0-1.06-.58-2.23-2.13-3.4s-3.4-2.42-5.34-3.78a115.38,115.38,0,0,1-9.42,19.13c-.59.87-1.17,1.94-1.85,2.91l-1.55-1.16a108,108,0,0,0,11.07-22.05c-7.58-4.95-16.51-11.27-17.58-19.62l-.1-1.36a11.13,11.13,0,0,1,4.37-8.93,9.58,9.58,0,0,1,5.54-1.75,9.08,9.08,0,0,1,5.44,1.75c4.76,3.49,6.21,10.2,6.21,17.09a58.55,58.55,0,0,1-1.36,12.14c2,1.26,4,2.62,5.83,4.08,3,2.33,5.54,3.4,5.54,7.77-.3,4-1.85,5.34-8.16,18.55-4.08,9.32-5.54,12-5.54,13.89l.2,1.07h.09a10.28,10.28,0,0,0,3.4-2.92c8.35-10,14.47-16.7,18.07-19.91l1.26,1.46c-3.5,3.11-9.52,9.71-17.87,19.62a11.93,11.93,0,0,1-4.08,3.5,3,3,0,0,1-.87.19C534,201.94,532.22,197.76,532.22,191.94Zm5.63-49.34c0-9.71-3.2-17-9.61-17-5.06,0-8.07,4.28-8.07,8.55l.1,1.26c1.07,8.16,11.07,14.57,16.41,18.07A54.47,54.47,0,0,0,537.85,142.6Z" transform="translate(0 -0.01)"/><path class="cls-33" d="M562,197.67l-.29-.1c-2,0-4.56-1.55-6-5.63a31.33,31.33,0,0,1-1.17-9c0-9.81,2.82-21.46,3.6-24.28.29-.87,1.36-1.26,2.62-1.26,2.23,0,5,1.17,5,2.72v.29c-3.79,14.18-6.31,23.6-6.31,29.23a8.32,8.32,0,0,0,1.26,5.06,4.06,4.06,0,0,0,1.56,1.06h.29a5.81,5.81,0,0,0,2.62-.77c5.34-3.21,9.32-12.34,12.43-17.68l1.65,1c-2.14,3.89-9.22,19.43-16.51,19.43Zm-1.26-57.4A5.68,5.68,0,1,1,566.5,146,5.66,5.66,0,0,1,560.77,140.27Z" transform="translate(0 -0.01)"/><path class="cls-33" d="M616.61,203.1c-8.45,0-12.62-15.15-12.91-27.67-3.5,6.11-13.5,22.72-20.4,22.72a4,4,0,0,1-1.46-.29c-1.94-.78-3.4-3.2-4.46-5.15a18.81,18.81,0,0,1-1.66-4.85,33.17,33.17,0,0,1-.48-5.25c0-17.09,13.69-31.46,22.53-31.46a6.59,6.59,0,0,1,3.4.87,8.26,8.26,0,0,1,3.4,4.86c4.66-45,26-76,39.14-76a7.74,7.74,0,0,1,2.14.29c5.24,1.55,7.38,8.06,7.57,13.31V96c0,22-21.17,45.26-39.82,56.62-1.26,6.9-2.81,16.8-3.4,21.66a75.32,75.32,0,0,0-.68,10.2c0,8,1.46,16.31,7.29,16.7,5.82-.09,9.81-11.75,16-24.18l1.75.87c-6.6,13.21-10.49,25.06-17.77,25.25ZM603.7,171.54c0-2.23.09-4.47.19-6.12-.19-4.76-1-10.2-3.69-11.65a1.89,1.89,0,0,0-1.17-.39l-.68.1c-5.14,1.06-17.38,27.68-17.38,38.46,0,2.13.48,3.59,1.65,4.17a2.1,2.1,0,0,0,.78.1C588.45,196.21,598.26,181.54,603.7,171.54Zm36.61-46.23C648.47,114,651.58,103.65,651.58,96c0-7.09-2.63-12-6.32-13a4.08,4.08,0,0,0-1.55-.19c-3,0-5.92,2.53-7.87,5.25-10.78,14.86-18.35,43.89-21.75,62.06A100.65,100.65,0,0,0,640.31,125.31Z" transform="translate(0 -0.01)"/><path class="cls-33" d="M630.3,184.46c0-9.42,4.57-22.15,15.64-29.82a17.4,17.4,0,0,1,8.64-3,4.86,4.86,0,0,1,3.21,1,4.79,4.79,0,0,1,1.26,3.69c0,10.49-8.64,18.65-15,18.65a6.23,6.23,0,0,1-3-.68c-1.55,3.5-5.05,12.43-5.05,17.29,0,3.4,1.65,4.17,4.67,4.37,6.6-.39,20-9.81,27.58-17.87l1.36,1.36c-4.18,5-11.95,10.68-20.3,15.44-2.72,1.55-5.63,3-8.74,3C634.77,197.47,630.3,194.85,630.3,184.46Zm26.81-28.17a3.14,3.14,0,0,0-.49-2.13,1.43,1.43,0,0,0-1.07-.39c-4.37,0-11.65,14.57-13.59,18.74a3.89,3.89,0,0,0,2.13.58C649.14,173.09,657.11,165.81,657.11,156.29Z" transform="translate(0 -0.01)"/><path class="cls-33" d="M423.21,463.36c-3.79-2.33-6.12-6-6.12-9.81v-.2c.1-3.3,1.85-6.31,3.21-8.25,14.57-20.79,44.19-24,65-29.43,16.32-30.4,19.14-66.82,21.27-83a276.76,276.76,0,0,1-19.42,22.92l-.39,2.62-1.65-.38c-18.45,19.71-32.83,35.45-52.35,40.4a20,20,0,0,1-5.34.78,10.42,10.42,0,0,1-5.34-1.36,10.69,10.69,0,0,1-3.6-3.6,13.43,13.43,0,0,1-2-7.28,19.21,19.21,0,0,1,1.95-8.16c11-25.93,39.62-45.94,54.29-45.94l2,.2a14.14,14.14,0,0,1,8.84,4.46c3.1,3.31,4.07,8.06,4.07,12.92l-.09,2.14c20.1-22.05,20.88-27.2,23.31-27.2l.48.1c1.56.29,2.92,2.72,2.92,7a19.7,19.7,0,0,1-.1,2.33c-2.33,24.87-8.74,55.66-20.49,78.58l26.51-4.28.39,2-28.17,4.76c-11.36,20.69-26.61,36.71-47.88,46.43-4.17,1.84-8.74,3.3-13.11,3.3A16.24,16.24,0,0,1,423.21,463.36ZM448.85,456c15.06-9.33,26.61-22.73,35.16-38-20.2,5.15-48.37,8.55-62.06,28.26-1.26,1.75-2.82,4.37-2.91,7.09v.2a9.64,9.64,0,0,0,5.14,8.06l.88.49a13,13,0,0,0,5.05,1C436.52,463.07,443.32,459.28,448.85,456Zm-16.6-59.64c18.45-4.76,32.43-19.32,53-41.66a35.91,35.91,0,0,0,.29-4.76c0-4.08-.77-8.45-3.39-11.36a7.92,7.92,0,0,0-5.93-2.63c-5.44,0-11.46,4.47-15.34,7.29-13.21,9.42-23,20.39-27.1,24.86-8.94,10.39-13.31,15.83-13.79,21l-.1,1A7,7,0,0,0,423,396a8,8,0,0,0,4.37,1.06A18.61,18.61,0,0,0,432.25,396.34Z" transform="translate(0 -0.01)"/><path class="cls-33" d="M522,424a34.23,34.23,0,0,1,8.45-22.14c1.36-1.65,4.47-3.69,4.47-6.12,0-1.07-.59-2.23-2.14-3.4s-3.4-2.43-5.34-3.79A115,115,0,0,1,518,407.71c-.59.87-1.17,1.94-1.85,2.91l-1.55-1.16a108,108,0,0,0,11.07-22c-7.58-5-16.51-11.27-17.58-19.62l-.1-1.36a11.15,11.15,0,0,1,4.37-8.94,9.64,9.64,0,0,1,5.54-1.74,9.14,9.14,0,0,1,5.44,1.74c4.76,3.5,6.21,10.2,6.21,17.1a58.55,58.55,0,0,1-1.36,12.14c1.95,1.26,4,2.62,5.83,4.08,3,2.33,5.54,3.4,5.54,7.77-.29,4-1.85,5.34-8.16,18.55-4.08,9.32-5.54,12-5.54,13.89l.2,1.06h.1a10.2,10.2,0,0,0,3.39-2.91c8.36-10,14.48-16.7,18.07-19.91l1.26,1.46c-3.5,3.11-9.52,9.71-17.87,19.62a11.8,11.8,0,0,1-4.08,3.49,2.74,2.74,0,0,1-.87.2C523.73,434,522,429.85,522,424Zm5.63-49.33c0-9.72-3.2-17-9.61-17-5,0-8.06,4.27-8.06,8.55l.09,1.26c1.07,8.16,11.07,14.57,16.42,18.06A55.08,55.08,0,0,0,527.61,374.69Z" transform="translate(0 -0.01)"/><path class="cls-33" d="M551.21,432.38a6.44,6.44,0,0,1-2.91-.49c-3.31-1.16-5-5.92-5-11.85a32.32,32.32,0,0,1,4.76-16.9,1.12,1.12,0,0,1,1-.39,8.38,8.38,0,0,1,4.08,1.75,16.44,16.44,0,0,1-4.18-10.39c0-5.15,3.2-9,6.9-9a6.62,6.62,0,0,1,4.56,2c3,2.91,5.73,10.68,5.73,18.94,0,1.26-.1,2.42-.19,3.69a32.6,32.6,0,0,0,4.56.39,41.7,41.7,0,0,0,5.73-.49,28.94,28.94,0,0,1,2.62-5.54,1,1,0,0,1,.88-.38,6.22,6.22,0,0,1,3.4,1.55,13.49,13.49,0,0,1-3.5-8.74c0-4.28,2.62-7.58,5.73-7.58a5.81,5.81,0,0,1,3.79,1.75c2.52,2.43,4.76,8.94,4.76,15.83a29.28,29.28,0,0,1-.1,3,22.53,22.53,0,0,0,3.79.29,33.58,33.58,0,0,0,7.09-.77l.39,1.55a32.44,32.44,0,0,1-7.58.87,22.72,22.72,0,0,1-3.88-.29c-1,6.9-5.25,16.81-11.47,17.19a.55.55,0,0,1-.38.1h-.2a6.09,6.09,0,0,1-2.52-.39c-2.72-1-4.18-5.05-4.18-10a24.33,24.33,0,0,1,.78-6.41,34.49,34.49,0,0,1-5.25.39,24,24,0,0,1-4.66-.39c-1.16,8.25-6.31,20.1-13.69,20.69Zm12.53-21.08a22.09,22.09,0,0,1-9.13-5.15l.1.49c0,.39-.49.78-2,3.3a38,38,0,0,0-4.37,16,9.21,9.21,0,0,0,.39,2.72,2.55,2.55,0,0,0,1.94,1.74h.59C557.81,430.43,562.67,418.88,563.74,411.3Zm.39-4.56c0-8-2.62-19.72-8.55-19.72-2.23,0-3.79,2.23-4.37,4.47a12.3,12.3,0,0,0-.29,2.62c0,6.6,5.73,13.21,13.11,15.25ZM592,410.91a17.07,17.07,0,0,1-7.67-4.37l.1.39c0,.39-.49.78-1.65,2.82a31.09,31.09,0,0,0-3.6,13.3,7.27,7.27,0,0,0,.29,2.33,2.29,2.29,0,0,0,1.65,1.46h.49C587,426.84,591,417.23,592,410.91Zm.29-3.59c0-6.7-2.13-16.71-7.18-16.71-1.85,0-3.21,1.95-3.6,3.69a9.06,9.06,0,0,0-.29,2.24c0,5.53,4.86,11,11,12.72Z" transform="translate(0 -0.01)"/><path class="cls-33" d="M600.16,431.5v-.29a72.15,72.15,0,0,1-.59-9.23,73.75,73.75,0,0,1,.39-8.06c1.36-12,6.31-24.28,9.71-29.81a2.22,2.22,0,0,1,2-1c2.14,0,5,1.94,5,3.78a2.8,2.8,0,0,1-.2.88c-.29.39-1.84,3.2-3.3,6a114.39,114.39,0,0,0-9.71,28.75c3.11-7.48,11.36-24.38,18.26-28.65a4.86,4.86,0,0,1,1.45-.78,3.94,3.94,0,0,1,1.56-.29c2.62,0,5.34,2.52,5.34,9.22l-.1,2.53c8.55-14.08,11.07-16.71,13.5-18.26a6,6,0,0,1,1.17-.68l.77-.1a3.07,3.07,0,0,1,2.34,1.07c1.65,1.85,2.23,5.34,2.62,7.87a31.08,31.08,0,0,1,.39,5.24c0,8.84-2.53,18.16-2.53,22.44,0,1.36.29,2.33,1,2.43h.29a4.59,4.59,0,0,0,1.65-.39c2.34-1.46,6.51-9.71,8.07-14.57l1.84.58c-1.26,4.18-5.63,13.5-8.84,15.54a4.37,4.37,0,0,1-2.62.78,2.37,2.37,0,0,1-.78-.1c-3.88-.68-7.38-9.22-7.38-16.41v-.88c0-6,1.85-13.4,3.6-19.23a5.14,5.14,0,0,0,.38-1.74v-.39a.21.21,0,0,0-.19-.2,1.14,1.14,0,0,0-.58.29c-2.33,1.56-4,3.89-5.73,6.32-8.06,11.94-11.17,19.42-12,22.53a2,2,0,0,1-1.74,1.36h-.2a1.83,1.83,0,0,1-1.75-1.85v-.19a100.7,100.7,0,0,0,.68-10.59c0-4.46-.48-8.45-1.84-8.45l-.49.2c-7.09,4.27-15.44,22.72-19.42,34.48Z" transform="translate(0 -0.01)"/><path class="cls-32" d="M520.17,307.71a5.61,5.61,0,0,1-1.36-.49,6,6,0,0,1-1.36-.68,7.13,7.13,0,0,1-2.43-2.13,4.74,4.74,0,0,1-.77-1.56,10.31,10.31,0,0,1-.2-1.75,12.3,12.3,0,0,1,.49-3.2,29,29,0,0,1,4-7.38l2.23-3c.49-.49.88-1.07,1.36-1.65-11.55-11.76-14.86-22.44-14.86-30.89a31.38,31.38,0,0,1,1.66-10.2c6-17.77,26.7-29.91,42.05-29.91a27,27,0,0,1,4,.29,22.23,22.23,0,0,1,5.54,1.56,16.31,16.31,0,0,1,2.62,1.35,11,11,0,0,1,2.43,1.85,13.11,13.11,0,0,1,2.62,3.3,19.79,19.79,0,0,1,2.62,8.45v1.26a22.25,22.25,0,0,1-.48,5.06,32.56,32.56,0,0,1-1.75,6.11c-.78,1.85-1.46,3.21-1.85,4.08a75.84,75.84,0,0,1-6.31,9.52,104.09,104.09,0,0,1-7.58,8.64,208.2,208.2,0,0,1-16.21,15.06L529,287.7l-1.07,1c2.82,2.43,6.12,5,9.81,7.58a72,72,0,0,0,8-12l1.75,1a88.86,88.86,0,0,1-8.16,12.14c4.38,2.91,9.33,5.92,14.86,8.93l-.87,1.65A162.49,162.49,0,0,1,538,298.77c-4.27,5-9.71,9.33-15.15,9.33A8.86,8.86,0,0,1,520.17,307.71Zm4.37-24.57c2.62-3.11,5.44-6.12,6.7-7.38,5-5,10.2-10.2,15.25-15.45,2.62-2.62,5-5.24,7.29-8a88.94,88.94,0,0,0,6.21-8.06l1.94-3.21a29,29,0,0,0,2.14-4.66,25,25,0,0,0,1.07-4.76v-3.2a19.79,19.79,0,0,0-.78-3.5,9.71,9.71,0,0,0-1.36-2.91,10.46,10.46,0,0,0-3.49-3.31,14,14,0,0,0-4.86-1.65,23.63,23.63,0,0,0-3.79-.29c-6.5,0-14.18,2.43-21.27,6.61-9.32,5.63-15.93,13.4-18.84,22A30.18,30.18,0,0,0,509.2,255c0,8.06,3.1,18.16,14.18,29.43Zm12,14.57a119.7,119.7,0,0,1-10-7.77l-1.55,1.45c-1.26,1.07-2.14,1.94-2.62,2.43a25.45,25.45,0,0,0-4.66,5.44,4.65,4.65,0,0,0-.88,2,3.92,3.92,0,0,0-.09,1l.29,1a6.48,6.48,0,0,0,3.78,2.62,7.88,7.88,0,0,0,2.14.29C527.55,306.15,532.41,302.27,536.49,297.71Z" transform="translate(0 -0.01)"/></g><g id="Capa_7" data-name="Capa 7"><path class="cls-33" d="M520.17,319.71a5.61,5.61,0,0,1-1.36-.49,6,6,0,0,1-1.36-.68,7.13,7.13,0,0,1-2.43-2.13,4.74,4.74,0,0,1-.77-1.56,10.31,10.31,0,0,1-.2-1.75,12.3,12.3,0,0,1,.49-3.2,29,29,0,0,1,4-7.38l2.23-3c.49-.49.88-1.07,1.36-1.65-11.55-11.76-14.86-22.44-14.86-30.89a31.38,31.38,0,0,1,1.66-10.2c6-17.77,26.7-29.91,42.05-29.91a27,27,0,0,1,4,.29,22.23,22.23,0,0,1,5.54,1.56,16.31,16.31,0,0,1,2.62,1.35,11,11,0,0,1,2.43,1.85,13.11,13.11,0,0,1,2.62,3.3,19.79,19.79,0,0,1,2.62,8.45v1.26a22.25,22.25,0,0,1-.48,5.06,32.56,32.56,0,0,1-1.75,6.11c-.78,1.85-1.46,3.21-1.85,4.08a75.84,75.84,0,0,1-6.31,9.52,104.09,104.09,0,0,1-7.58,8.64,208.2,208.2,0,0,1-16.21,15.06L529,299.7l-1.07,1c2.82,2.43,6.12,5,9.81,7.58a72,72,0,0,0,8-12l1.75,1a88.86,88.86,0,0,1-8.16,12.14c4.38,2.91,9.33,5.92,14.86,8.93l-.87,1.65A162.49,162.49,0,0,1,538,310.77c-4.27,5-9.71,9.33-15.15,9.33A8.86,8.86,0,0,1,520.17,319.71Zm4.37-24.57c2.62-3.11,5.44-6.12,6.7-7.38,5-5,10.2-10.2,15.25-15.45,2.62-2.62,5-5.24,7.29-8a88.94,88.94,0,0,0,6.21-8.06l1.94-3.21a29,29,0,0,0,2.14-4.66,25,25,0,0,0,1.07-4.76v-3.2a19.79,19.79,0,0,0-.78-3.5,9.71,9.71,0,0,0-1.36-2.91,10.46,10.46,0,0,0-3.49-3.31,14,14,0,0,0-4.86-1.65,23.63,23.63,0,0,0-3.79-.29c-6.5,0-14.18,2.43-21.27,6.61-9.32,5.63-15.93,13.4-18.84,22A30.18,30.18,0,0,0,509.2,267c0,8.06,3.1,18.16,14.18,29.43Zm12,14.57a119.7,119.7,0,0,1-10-7.77l-1.55,1.45c-1.26,1.07-2.14,1.94-2.62,2.43a25.45,25.45,0,0,0-4.66,5.44,4.65,4.65,0,0,0-.88,2,3.92,3.92,0,0,0-.09,1l.29,1a6.48,6.48,0,0,0,3.78,2.62,7.88,7.88,0,0,0,2.14.29C527.55,318.15,532.41,314.27,536.49,309.71Z" transform="translate(0 -0.01)"/><path class="cls-33" d="M578.06,604.65c-21.13-41.74-61.32-61.41-103-78.55-20.67-8.49-41.27-17-61.31-26.45,7.73-25.72-8.24-56.21-28-71.83-2.68-2.11-7.27-1.78-8.16,2.15-4,17.85-3.55,35.55,2.11,52.2-7.46-4.17-14.83-8.48-22-13.16a5.4,5.4,0,0,0,1.4-1.95c11-27.26-.74-59.43-26.68-73.2-2.59-1.38-6.52-.31-7.16,2.91-3.45,17.31-2.39,34.92,3.71,51a256.84,256.84,0,0,1-23.48-22.24,4.42,4.42,0,0,0,2.27-2.93,129.41,129.41,0,0,0-1.07-71.21,4.78,4.78,0,0,0-7.91-2.09,56.43,56.43,0,0,0-17.19,45.23,205.27,205.27,0,0,1-16.19-31.55c22.27-9.25,34.07-37.05,25.19-59.69-1.23-3.12-4.11-4.38-7.19-2.93a56.47,56.47,0,0,0-28.24,29.89,210.44,210.44,0,0,1-4.71-32.79A55.84,55.84,0,0,0,296.21,249c.36-3.13-3.27-5.2-5.92-4.51a67,67,0,0,0-40,28.8,222.37,222.37,0,0,1,5.14-38c26.69-3.27,50.79-16.9,65.94-39.33a4.46,4.46,0,0,0-2.64-6.51,60.2,60.2,0,0,0-53.05,12.25q2.85-7.27,6.2-14.41A215.21,215.21,0,0,1,283,167.22c24.34,11.63,56.08,3.42,73.93-16A4.39,4.39,0,0,0,355,144c-19-6.91-40.81-6.9-58.63,2.72a271.85,271.85,0,0,1,27.81-32.05c19.55,17,50,20.79,71.69,5.38a4.53,4.53,0,0,0,0-7.7c-15.6-11.06-31.2-18.79-48.65-18.17,6.84-5.54,13.83-10.92,21.09-16a3.41,3.41,0,0,0,.32.49C386.49,97.81,417,97.59,436.77,81.9c2.24-1.77,1.4-5.75-.9-7-14.38-7.78-28.63-12.26-44-12.11q10.69-6.49,21.76-12.47a5,5,0,0,0,1.36.77c26.24,8.75,55.61-4.26,67.43-29.13,1.32-2.77.4-6.61-3-7.38-24-5.44-51.25,2.73-65.23,23.52a5.35,5.35,0,0,0-1.76.44q-5.34,2.49-10.61,5.2a76.61,76.61,0,0,0,9.26-30.84c.19-2.38-2.38-3.85-4.44-3.38-26.29,6-45.23,30.83-43.22,57.44-7.94,5.55-15.63,11.49-23.07,17.73,6.26-15.44,5.52-34-1-49.07-1.12-2.58-4.65-2.35-6.4-.82-20.34,17.73-27.8,47.79-17.24,72.72-7,7.24-13.66,14.84-20,22.67A118.44,118.44,0,0,0,281,82.1c-1.32-2.37-5.4-3.28-7.26-.94-17.17,21.67-18.8,55.66,1,76a6.27,6.27,0,0,0-.23,3.33,266.36,266.36,0,0,0-23.35,47.9c0-22.44-6.23-43.56-16.14-63.71-1.76-3.58-6.53-2.77-8.48,0C209,169.44,216.4,208.91,243,224.27a3.68,3.68,0,0,0,2.79.39A225.38,225.38,0,0,0,237.83,268c-6.69-15.17-18.47-28.19-32.23-37.2-2.88-1.89-7.66.54-7.27,4.17,2.44,23.36,10.15,62.11,39.16,64.38a214.28,214.28,0,0,0,6.16,38.79A119.47,119.47,0,0,0,201.25,312c-3.31-1.2-6.28,1.88-6.46,4.93-1.73,28.35,27.33,53.35,55.1,46.24a3.54,3.54,0,0,0,1.39-.72,211.4,211.4,0,0,0,21.35,40.94c-15.27-10.21-33.86-15.78-51.84-17.27-2.6-.21-5.47,2.57-5.19,5.2,3.93,37.9,45.56,42.33,75.92,38.51a4,4,0,0,0,1.14-.37,286.4,286.4,0,0,0,26.92,26.36,91.8,91.8,0,0,0-56.17,9.69c-3.46,1.79-3.14,6-1.11,8.62,19.91,25.47,54.7,16.34,79.17,3.51a3.77,3.77,0,0,0,2-2.77q11.32,8.19,23.13,15.53a75.19,75.19,0,0,0-41.72,27.1c-2,2.53-2.24,6.51,1.07,8.27,24.48,13,61.17,8,76.82-16.14,60.27,27.71,128.28,43.65,169.79,98.26C575,611.06,580,608.39,578.06,604.65ZM470,23.26A46.67,46.67,0,0,1,421.11,42.2C434.4,29.09,451.28,21.29,470,23.26ZM424.86,78.58c-16,7.51-33.85,4.88-48.25-6,.64-.43,1.28-.87,1.93-1.29C394.21,68.93,410.86,71,424.86,78.58ZM403.11,18.51c-3,14.92-10.68,26.39-21.43,36.54q-5.31,3.23-10.51,6.65C373.78,42.85,385.32,26.21,403.11,18.51Zm-64.79,83c16.65-2.68,36.47.53,48,12.94-18.63,7.44-38.44,5.44-54.21-7.23C334.15,105.31,336.19,103.36,338.32,101.51Zm-3.87-55.73c5.89,19.25-.94,36.74-13.24,52.5C318.34,79.1,322.47,61.22,334.45,45.78ZM295.23,155.47c0-.33,0-.66.09-1,16.6-6.67,32.51-9.26,49.51-4.7-15.72,11.44-33.49,13.38-51.62,8.81A4.43,4.43,0,0,0,295.23,155.47ZM276.46,93.56a109,109,0,0,1,10.69,48q-3.78,5.17-7.33,10.49C268.21,134.24,265.49,112.15,276.46,93.56ZM259.83,218.67c11.65-15.15,30-23.61,48.9-21.85a93.36,93.36,0,0,1-50.27,26.84C258.93,222,259.33,220.33,259.83,218.67Zm-28.95-60.2c7.66,16.91,10.82,34.86,11.31,53.64C228.65,196.94,224,177.47,230.88,158.47Zm-21.47,87.3c13.54,11.75,21,26.8,26.17,44.75C218.17,281.93,212.33,264.58,209.41,245.77ZM206.09,325c16,6.9,29.2,17.2,40.84,30.4C227.6,355.85,210.45,343.44,206.09,325Zm79-69.2a46.91,46.91,0,0,1-34.88,31A63.2,63.2,0,0,1,285,255.84Zm-25.45,90.89c2.5-14.73,10.3-27.12,23.14-34.93,3.4,16.89-5.44,33.65-21,41.07C261,350.82,260.24,348.8,259.59,346.73ZM227.17,397.3c20.91,3.09,37.76,12.52,54.52,25.5C260.27,422.32,233.5,419.46,227.17,397.3Zm71.68,20.5c-1.57-1.85-3.13-3.7-4.62-5.6-7-16.71-5.3-35.44,5.5-49.82A121.56,121.56,0,0,1,298.85,417.8Zm-23.3,54.08c19.58-8.44,40.7-8.87,61-1.8C316.74,476.67,292.8,486.14,275.55,471.88Zm74.19-8.25c-2.38-1.67-4.77-3.33-7.11-5.06-7.94-16.55-11.47-34-9.09-52.23A49.14,49.14,0,0,1,349.74,463.63Zm-12.55,55.52c11.78-13.1,27.33-19.27,44.32-20.09q6,3.22,12.12,6.21C377.64,519.24,358,526.73,337.19,519.15Zm62.5-26.24a4,4,0,0,0-2.89-2.65c-1-.24-2.08-.28-3.12-.47-1.39-.72-2.74-1.52-4.12-2.25a98,98,0,0,1-4.24-46.84c14.91,15.26,18.31,33.13,19,54.42C402.77,494.37,401.21,493.67,399.69,492.91Z" transform="translate(0 -0.01)"/><path class="cls-33" d="M505.77,607.86c41.51-54.61,109.52-70.55,169.8-98.26,15.64,24.16,52.33,29.11,76.81,16.14,3.31-1.76,3-5.74,1.07-8.27a75.19,75.19,0,0,0-41.72-27.1q11.79-7.32,23.13-15.53a3.77,3.77,0,0,0,2,2.77c24.48,12.83,59.26,22,79.17-3.51,2-2.61,2.35-6.83-1.11-8.62a91.8,91.8,0,0,0-56.17-9.69,286.4,286.4,0,0,0,26.92-26.36,4,4,0,0,0,1.15.37c30.35,3.82,72-.61,75.92-38.51.27-2.63-2.6-5.41-5.2-5.2-18,1.49-36.57,7.06-51.84,17.27a211.4,211.4,0,0,0,21.35-40.94,3.51,3.51,0,0,0,1.4.72c27.76,7.11,56.82-17.89,55.09-46.24-.18-3-3.15-6.13-6.46-4.93a119.47,119.47,0,0,0-42.4,26.17,214.28,214.28,0,0,0,6.16-38.79c29-2.27,36.72-41,39.17-64.38.38-3.63-4.4-6.06-7.28-4.17-13.76,9-25.53,22-32.23,37.2a225.38,225.38,0,0,0-8-43.34,3.68,3.68,0,0,0,2.79-.39c26.59-15.36,33.95-54.83,16.53-79.6-2-2.77-6.72-3.58-8.48,0-9.91,20.15-16.16,41.27-16.13,63.71a267.08,267.08,0,0,0-23.36-47.9,6.18,6.18,0,0,0-.23-3.33c19.76-20.33,18.13-54.32,1-76-1.86-2.34-5.93-1.43-7.26.94a118.59,118.59,0,0,0-14.82,48.1c-6.29-7.83-12.91-15.43-19.95-22.67,10.56-24.93,3.1-55-17.24-72.72-1.75-1.53-5.28-1.76-6.39.82-6.53,15.08-7.27,33.63-1,49.07C730.53,78.46,722.84,72.52,714.9,67c2-26.61-16.92-51.44-43.22-57.44-2.06-.47-4.63,1-4.44,3.38a76.61,76.61,0,0,0,9.26,30.84q-5.26-2.7-10.61-5.2a5.29,5.29,0,0,0-1.76-.44c-14-20.79-41.23-29-65.23-23.52-3.39.77-4.32,4.61-3,7.38,11.82,24.87,41.2,37.88,67.44,29.13a5.06,5.06,0,0,0,1.35-.77q11,6,21.76,12.47c-15.35-.15-29.6,4.33-44,12.11-2.3,1.24-3.14,5.22-.9,7,19.81,15.69,50.28,15.91,68.18-3.23.15-.16.19-.33.32-.49,7.26,5.07,14.24,10.45,21.08,16-17.45-.62-33,7.11-48.65,18.17a4.54,4.54,0,0,0,0,7.7c21.67,15.41,52.15,11.61,71.69-5.38A271.85,271.85,0,0,1,782,146.71c-17.82-9.62-39.62-9.63-58.63-2.72a4.39,4.39,0,0,0-1.92,7.24c17.85,19.41,49.59,27.62,73.93,16a215.21,215.21,0,0,1,11.06,20.12q3.36,7.14,6.2,14.41a60.17,60.17,0,0,0-53-12.25A4.46,4.46,0,0,0,757,196c15.15,22.43,39.25,36.06,65.94,39.33a222.37,222.37,0,0,1,5.14,38,67,67,0,0,0-40-28.8c-2.66-.69-6.29,1.38-5.93,4.51a55.84,55.84,0,0,0,45.75,48.39,211.62,211.62,0,0,1-4.7,32.79,56.55,56.55,0,0,0-28.24-29.89c-3.08-1.45-6-.19-7.19,2.93-8.89,22.64,2.91,50.44,25.18,59.69a205.27,205.27,0,0,1-16.19,31.55,56.43,56.43,0,0,0-17.19-45.23,4.78,4.78,0,0,0-7.91,2.09,129.41,129.41,0,0,0-1.07,71.21,4.42,4.42,0,0,0,2.27,2.93,256.84,256.84,0,0,1-23.48,22.24c6.1-16,7.16-33.64,3.72-51-.65-3.22-4.57-4.29-7.17-2.91-25.93,13.77-37.72,45.94-26.68,73.2a5.31,5.31,0,0,0,1.41,1.95c-7.15,4.68-14.52,9-22,13.16,5.66-16.65,6.15-34.35,2.11-52.2-.89-3.93-5.48-4.26-8.15-2.15-19.78,15.62-35.75,46.11-28,71.83-20,9.41-40.64,18-61.31,26.45-41.69,17.14-81.87,36.81-103,78.55C498.38,608.39,503.34,611.06,505.77,607.86ZM657.23,42.2a46.68,46.68,0,0,1-48.88-18.94C627.06,21.29,643.94,29.09,657.23,42.2Zm42.57,29c.65.42,1.29.86,1.94,1.29-14.41,10.93-32.27,13.56-48.25,6C667.48,71,684.13,68.93,699.8,71.24Zm7.38-9.54q-5.2-3.44-10.51-6.65c-10.76-10.15-18.4-21.62-21.44-36.54C693,26.21,704.56,42.85,707.18,61.7Zm39.09,45.52c-15.78,12.67-35.59,14.67-54.21,7.23,11.49-12.41,31.32-15.62,48-12.94C742.15,103.36,744.19,105.31,746.27,107.22Zm10.86-8.94C744.83,82.52,738,65,743.9,45.78,755.88,61.22,760,79.1,757.13,98.28Zm28,60.31c-18.13,4.57-35.9,2.63-51.62-8.81,17-4.56,32.91-2,49.52,4.7,0,.33,0,.66.09,1A4.39,4.39,0,0,0,785.13,158.59ZM798.52,152q-3.54-5.32-7.33-10.49a108.84,108.84,0,0,1,10.7-48C812.85,112.15,810.13,134.24,798.52,152Zm21.36,71.65a93.36,93.36,0,0,1-50.27-26.84c18.86-1.76,37.26,6.7,48.9,21.85C819,220.33,819.41,222,819.88,223.66Zm16.27-11.55c.49-18.78,3.66-36.73,11.31-53.64C854.38,177.47,849.69,196.94,836.15,212.11Zm6.61,78.41c5.2-17.95,12.63-33,26.17-44.75C866,264.58,860.18,281.93,842.76,290.52Zm-11.35,64.92c11.64-13.2,24.86-23.5,40.84-30.4C867.89,343.44,850.74,355.85,831.41,355.44Zm-3.23-68.63a46.88,46.88,0,0,1-34.87-31A63.22,63.22,0,0,1,828.18,286.81Zm-11.59,66.06c-15.54-7.42-24.38-24.18-21-41.07,12.84,7.81,20.64,20.2,23.14,34.93C818.1,348.8,817.31,350.82,816.59,352.87ZM796.65,422.8c16.76-13,33.61-22.41,54.52-25.5C844.84,419.46,818.08,422.32,796.65,422.8Zm-18-60.42c10.79,14.38,12.5,33.11,5.49,49.82-1.49,1.9-3.05,3.75-4.61,5.6A121.28,121.28,0,0,1,778.62,362.38Zm-36.81,107.7c20.28-7.07,41.4-6.64,61,1.8C785.54,486.14,761.61,476.67,741.81,470.08Zm3-63.74c2.38,18.24-1.15,35.68-9.08,52.23-2.35,1.73-4.73,3.39-7.12,5.06A49.14,49.14,0,0,1,744.8,406.34Zm-60.09,98.93q6.13-3,12.12-6.21c17,.82,32.54,7,44.32,20.09C720.35,526.73,700.7,519.24,684.71,505.27Zm-10.66-10.15c.66-21.29,4.06-39.16,19-54.42a97.85,97.85,0,0,1-4.24,46.84c-1.38.73-2.73,1.53-4.12,2.25-1,.19-2.08.23-3.12.47a4,4,0,0,0-2.89,2.65C677.14,493.67,675.58,494.37,674.05,495.12Z" transform="translate(0 -0.01)"/><path class="cls-32" d="M410.34,228.45a15.87,15.87,0,0,1-2.24-8.16,13.31,13.31,0,0,1,1.46-6.21c1.75-3.31,4.76-5.44,7.28-7C431.22,198,448.8,196,466.38,196l8.35.1-.1,1.94c-2.81-.1-5.73-.1-8.54-.1-17.1,0-34.29,1.85-48.27,10.69-2.24,1.45-5.05,3.49-6.51,6.31a10.78,10.78,0,0,0-1.26,5.34,14.81,14.81,0,0,0,1.94,7.19c3.4,5.92,13.3,11.65,27.19,11.65,12.24,0,27.59-4.46,44.39-17.28,12.82-9.72,28.94-27.3,30.11-43.32v-1.46c0-7.77-3.7-15.15-11.85-17.28a33.43,33.43,0,0,0-7.77-.88,57.58,57.58,0,0,0-21.27,4.27c-7.19,4.08-8.45,3.6-14.09,7.87l-.77-1.07c-4.57,13.31-7.87,24.48-8.06,25.55l-1.95-.39.1-.39c1.36-18.55,7.19-40.79,13.4-56.14a2.82,2.82,0,0,1,2.82-1.65c2.14,0,4.56,1.56,4.56,3.5l-.19,1c-3.5,8.74-6.8,17.48-10.2,27.19l.39-.19c9.62-6.22,43.71-43.51,47.69-50.6a14,14,0,0,0,1.94-6.51,6.3,6.3,0,0,0-3.59-5.92,17.54,17.54,0,0,0-7.68-1.46c-11,0-29.52,6.22-48.07,27.78-5.44,6.31-12.72,16-13.69,27.19l-1.95-.19c1.07-11.66,8.55-21.66,14.18-28.27C466.38,108.6,485.51,102,497.16,102a19.59,19.59,0,0,1,8.55,1.65,12.56,12.56,0,0,1,6.8,11.46,17.79,17.79,0,0,1-.78,4.85C509.3,128,497.36,146.58,479.29,159a58.87,58.87,0,0,1,14.77-1.94,31.67,31.67,0,0,1,8.25.87A20.67,20.67,0,0,1,515,167.36a24.85,24.85,0,0,1,3.69,13.31c0,17-14.86,36.71-29.92,48.17-15.93,11.95-30.88,16.32-43.41,16.32C428.3,245.16,415.58,237,410.34,228.45Z" transform="translate(0 -0.01)"/><path class="cls-32" d="M532.22,201.94a34.24,34.24,0,0,1,8.45-22.15c1.36-1.65,4.46-3.69,4.46-6.12,0-1.06-.58-2.23-2.13-3.4s-3.4-2.42-5.34-3.78a115.38,115.38,0,0,1-9.42,19.13c-.59.87-1.17,1.94-1.85,2.91l-1.55-1.16a108,108,0,0,0,11.07-22.05c-7.58-4.95-16.51-11.27-17.58-19.62l-.1-1.36a11.13,11.13,0,0,1,4.37-8.93,9.58,9.58,0,0,1,5.54-1.75,9.08,9.08,0,0,1,5.44,1.75c4.76,3.49,6.21,10.2,6.21,17.09a58.55,58.55,0,0,1-1.36,12.14c2,1.26,4,2.62,5.83,4.08,3,2.33,5.54,3.4,5.54,7.77-.3,4-1.85,5.34-8.16,18.55-4.08,9.32-5.54,12-5.54,13.89l.2,1.07h.09a10.28,10.28,0,0,0,3.4-2.92c8.35-10,14.47-16.7,18.07-19.91l1.26,1.46c-3.5,3.11-9.52,9.71-17.87,19.62a11.93,11.93,0,0,1-4.08,3.5,3,3,0,0,1-.87.19C534,211.94,532.22,207.76,532.22,201.94Zm5.63-49.34c0-9.71-3.2-17-9.61-17-5.06,0-8.07,4.28-8.07,8.55l.1,1.26c1.07,8.16,11.07,14.57,16.41,18.07A54.47,54.47,0,0,0,537.85,152.6Z" transform="translate(0 -0.01)"/><path class="cls-32" d="M562,207.67l-.29-.1c-2,0-4.56-1.55-6-5.63a31.33,31.33,0,0,1-1.17-9c0-9.81,2.82-21.46,3.6-24.28.29-.87,1.36-1.26,2.62-1.26,2.23,0,5,1.17,5,2.72v.29c-3.79,14.18-6.31,23.6-6.31,29.23a8.32,8.32,0,0,0,1.26,5.06,4.06,4.06,0,0,0,1.56,1.06h.29a5.81,5.81,0,0,0,2.62-.77c5.34-3.21,9.32-12.34,12.43-17.68l1.65,1c-2.14,3.89-9.22,19.43-16.51,19.43Zm-1.26-57.4A5.68,5.68,0,1,1,566.5,156,5.66,5.66,0,0,1,560.77,150.27Z" transform="translate(0 -0.01)"/><path class="cls-32" d="M616.61,213.1c-8.45,0-12.62-15.15-12.91-27.67-3.5,6.11-13.5,22.72-20.4,22.72a4,4,0,0,1-1.46-.29c-1.94-.78-3.4-3.2-4.46-5.15a18.81,18.81,0,0,1-1.66-4.85,33.17,33.17,0,0,1-.48-5.25c0-17.09,13.69-31.46,22.53-31.46a6.59,6.59,0,0,1,3.4.87,8.26,8.26,0,0,1,3.4,4.86c4.66-45,26-76,39.14-76a7.74,7.74,0,0,1,2.14.29c5.24,1.55,7.38,8.06,7.57,13.31V106c0,22-21.17,45.26-39.82,56.62-1.26,6.9-2.81,16.8-3.4,21.66a75.32,75.32,0,0,0-.68,10.2c0,8,1.46,16.31,7.29,16.7,5.82-.09,9.81-11.75,16-24.18l1.75.87c-6.6,13.21-10.49,25.06-17.77,25.25ZM603.7,181.54c0-2.23.09-4.47.19-6.12-.19-4.76-1-10.2-3.69-11.65a1.89,1.89,0,0,0-1.17-.39l-.68.1c-5.14,1.06-17.38,27.68-17.38,38.46,0,2.13.48,3.59,1.65,4.17a2.1,2.1,0,0,0,.78.1C588.45,206.21,598.26,191.54,603.7,181.54Zm36.61-46.23c8.16-11.27,11.27-21.66,11.27-29.33,0-7.09-2.63-12-6.32-13a4.08,4.08,0,0,0-1.55-.19c-3,0-5.92,2.53-7.87,5.25-10.78,14.86-18.35,43.89-21.75,62.06A100.65,100.65,0,0,0,640.31,135.31Z" transform="translate(0 -0.01)"/><path class="cls-32" d="M630.3,194.46c0-9.42,4.57-22.15,15.64-29.82a17.4,17.4,0,0,1,8.64-3,4.86,4.86,0,0,1,3.21,1,4.79,4.79,0,0,1,1.26,3.69c0,10.49-8.64,18.65-15,18.65a6.23,6.23,0,0,1-3-.68c-1.55,3.5-5.05,12.43-5.05,17.29,0,3.4,1.65,4.17,4.67,4.37,6.6-.39,20-9.81,27.58-17.87l1.36,1.36c-4.18,5-11.95,10.68-20.3,15.44-2.72,1.55-5.63,3-8.74,3C634.77,207.47,630.3,204.85,630.3,194.46Zm26.81-28.17a3.14,3.14,0,0,0-.49-2.13,1.43,1.43,0,0,0-1.07-.39c-4.37,0-11.65,14.57-13.59,18.74a3.89,3.89,0,0,0,2.13.58C649.14,183.09,657.11,175.81,657.11,166.29Z" transform="translate(0 -0.01)"/><path class="cls-32" d="M423.21,473.36c-3.79-2.33-6.12-6-6.12-9.81v-.2c.1-3.3,1.85-6.31,3.21-8.25,14.57-20.79,44.19-24,65-29.43,16.32-30.4,19.14-66.82,21.27-83a276.76,276.76,0,0,1-19.42,22.92l-.39,2.62-1.65-.38c-18.45,19.71-32.83,35.45-52.35,40.4a20,20,0,0,1-5.34.78,10.42,10.42,0,0,1-5.34-1.36,10.69,10.69,0,0,1-3.6-3.6,13.43,13.43,0,0,1-2-7.28,19.21,19.21,0,0,1,1.95-8.16c11-25.93,39.62-45.94,54.29-45.94l2,.2a14.14,14.14,0,0,1,8.84,4.46c3.1,3.31,4.07,8.06,4.07,12.92l-.09,2.14c20.1-22.05,20.88-27.2,23.31-27.2l.48.1c1.56.29,2.92,2.72,2.92,7a19.7,19.7,0,0,1-.1,2.33c-2.33,24.87-8.74,55.66-20.49,78.58l26.51-4.28.39,2-28.17,4.76c-11.36,20.69-26.61,36.71-47.88,46.43-4.17,1.84-8.74,3.3-13.11,3.3A16.24,16.24,0,0,1,423.21,473.36ZM448.85,466c15.06-9.33,26.61-22.73,35.16-38-20.2,5.15-48.37,8.55-62.06,28.26-1.26,1.75-2.82,4.37-2.91,7.09v.2a9.64,9.64,0,0,0,5.14,8.06l.88.49a13,13,0,0,0,5.05,1C436.52,473.07,443.32,469.28,448.85,466Zm-16.6-59.64c18.45-4.76,32.43-19.32,53-41.66a35.91,35.91,0,0,0,.29-4.76c0-4.08-.77-8.45-3.39-11.36a7.92,7.92,0,0,0-5.93-2.63c-5.44,0-11.46,4.47-15.34,7.29-13.21,9.42-23,20.39-27.1,24.86-8.94,10.39-13.31,15.83-13.79,21l-.1,1A7,7,0,0,0,423,406a8,8,0,0,0,4.37,1.06A18.61,18.61,0,0,0,432.25,406.34Z" transform="translate(0 -0.01)"/><path class="cls-32" d="M522,434a34.23,34.23,0,0,1,8.45-22.14c1.36-1.65,4.47-3.69,4.47-6.12,0-1.07-.59-2.23-2.14-3.4s-3.4-2.43-5.34-3.79A115,115,0,0,1,518,417.71c-.59.87-1.17,1.94-1.85,2.91l-1.55-1.16a108,108,0,0,0,11.07-22c-7.58-5-16.51-11.27-17.58-19.62l-.1-1.36a11.15,11.15,0,0,1,4.37-8.94,9.64,9.64,0,0,1,5.54-1.74,9.14,9.14,0,0,1,5.44,1.74c4.76,3.5,6.21,10.2,6.21,17.1a58.55,58.55,0,0,1-1.36,12.14c1.95,1.26,4,2.62,5.83,4.08,3,2.33,5.54,3.4,5.54,7.77-.29,4-1.85,5.34-8.16,18.55-4.08,9.32-5.54,12-5.54,13.89l.2,1.06h.1a10.2,10.2,0,0,0,3.39-2.91c8.36-10,14.48-16.7,18.07-19.91l1.26,1.46c-3.5,3.11-9.52,9.71-17.87,19.62a11.8,11.8,0,0,1-4.08,3.49,2.74,2.74,0,0,1-.87.2C523.73,444,522,439.85,522,434Zm5.63-49.33c0-9.72-3.2-17-9.61-17-5,0-8.06,4.27-8.06,8.55l.09,1.26c1.07,8.16,11.07,14.57,16.42,18.06A55.08,55.08,0,0,0,527.61,384.69Z" transform="translate(0 -0.01)"/><path class="cls-32" d="M551.21,442.38a6.44,6.44,0,0,1-2.91-.49c-3.31-1.16-5-5.92-5-11.85a32.32,32.32,0,0,1,4.76-16.9,1.12,1.12,0,0,1,1-.39,8.38,8.38,0,0,1,4.08,1.75,16.44,16.44,0,0,1-4.18-10.39c0-5.15,3.2-9,6.9-9a6.62,6.62,0,0,1,4.56,2c3,2.91,5.73,10.68,5.73,18.94,0,1.26-.1,2.42-.19,3.69a32.6,32.6,0,0,0,4.56.39,41.7,41.7,0,0,0,5.73-.49,28.94,28.94,0,0,1,2.62-5.54,1,1,0,0,1,.88-.38,6.22,6.22,0,0,1,3.4,1.55,13.49,13.49,0,0,1-3.5-8.74c0-4.28,2.62-7.58,5.73-7.58a5.81,5.81,0,0,1,3.79,1.75c2.52,2.43,4.76,8.94,4.76,15.83a29.28,29.28,0,0,1-.1,3,22.53,22.53,0,0,0,3.79.29,33.58,33.58,0,0,0,7.09-.77l.39,1.55a32.44,32.44,0,0,1-7.58.87,22.72,22.72,0,0,1-3.88-.29c-1,6.9-5.25,16.81-11.47,17.19a.55.55,0,0,1-.38.1h-.2a6.09,6.09,0,0,1-2.52-.39c-2.72-1-4.18-5.05-4.18-10a24.33,24.33,0,0,1,.78-6.41,34.49,34.49,0,0,1-5.25.39,24,24,0,0,1-4.66-.39c-1.16,8.25-6.31,20.1-13.69,20.69Zm12.53-21.08a22.09,22.09,0,0,1-9.13-5.15l.1.49c0,.39-.49.78-2,3.3a38,38,0,0,0-4.37,16,9.21,9.21,0,0,0,.39,2.72,2.55,2.55,0,0,0,1.94,1.74h.59C557.81,440.43,562.67,428.88,563.74,421.3Zm.39-4.56c0-8-2.62-19.72-8.55-19.72-2.23,0-3.79,2.23-4.37,4.47a12.3,12.3,0,0,0-.29,2.62c0,6.6,5.73,13.21,13.11,15.25ZM592,420.91a17.07,17.07,0,0,1-7.67-4.37l.1.39c0,.39-.49.78-1.65,2.82a31.09,31.09,0,0,0-3.6,13.3,7.27,7.27,0,0,0,.29,2.33,2.29,2.29,0,0,0,1.65,1.46h.49C587,436.84,591,427.23,592,420.91Zm.29-3.59c0-6.7-2.13-16.71-7.18-16.71-1.85,0-3.21,1.95-3.6,3.69a9.06,9.06,0,0,0-.29,2.24c0,5.53,4.86,11,11,12.72Z" transform="translate(0 -0.01)"/><path class="cls-32" d="M600.16,441.5v-.29a72.15,72.15,0,0,1-.59-9.23,73.75,73.75,0,0,1,.39-8.06c1.36-12,6.31-24.28,9.71-29.81a2.22,2.22,0,0,1,2-1c2.14,0,5,1.94,5,3.78a2.8,2.8,0,0,1-.2.88c-.29.39-1.84,3.2-3.3,6a114.39,114.39,0,0,0-9.71,28.75c3.11-7.48,11.36-24.38,18.26-28.65a4.86,4.86,0,0,1,1.45-.78,3.94,3.94,0,0,1,1.56-.29c2.62,0,5.34,2.52,5.34,9.22l-.1,2.53c8.55-14.08,11.07-16.71,13.5-18.26a6,6,0,0,1,1.17-.68l.77-.1a3.07,3.07,0,0,1,2.34,1.07c1.65,1.85,2.23,5.34,2.62,7.87a31.08,31.08,0,0,1,.39,5.24c0,8.84-2.53,18.16-2.53,22.44,0,1.36.29,2.33,1,2.43h.29a4.59,4.59,0,0,0,1.65-.39c2.34-1.46,6.51-9.71,8.07-14.57l1.84.58c-1.26,4.18-5.63,13.5-8.84,15.54a4.37,4.37,0,0,1-2.62.78,2.37,2.37,0,0,1-.78-.1c-3.88-.68-7.38-9.22-7.38-16.41v-.88c0-6,1.85-13.4,3.6-19.23a5.14,5.14,0,0,0,.38-1.74v-.39a.21.21,0,0,0-.19-.2,1.14,1.14,0,0,0-.58.29c-2.33,1.56-4,3.89-5.73,6.32-8.06,11.94-11.17,19.42-12,22.53a2,2,0,0,1-1.74,1.36h-.2a1.83,1.83,0,0,1-1.75-1.85v-.19a100.7,100.7,0,0,0,.68-10.59c0-4.46-.48-8.45-1.84-8.45l-.49.2c-7.09,4.27-15.44,22.72-19.42,34.48Z" transform="translate(0 -0.01)"/></g><g id="Capa_8" data-name="Capa 8"><rect class="cls-33" width="1080" height="1080"/><polygon points="367.95 250.65 66.17 599.03 425.47 840.39 664.57 653.97 379.63 239.61 427.27 829.5 405.38 308.35 619.98 644.79 427.35 834.44 121.34 590.28 367.95 250.65"/><path d="M693.42,691.47c-14.66,0-25.13-20.24-29.08-41.65-1.87-9.3-2.56-20-2.56-31.41,0-74.69,35.83-185.68,84.69-207.32a24,24,0,0,1,10.47-2.56,23.67,23.67,0,0,1,5.59.93c12.56,3.49,17.68,18.85,18.15,30.72v3.95c0,51.19-51.19,104.71-95.17,130.54-4.19,23.27-7,42.81-7.91,50a196,196,0,0,0-1.4,22.11c0,18.85,3.49,38.86,17.69,40,7.67-.47,13.72-8.84,18.61-17.22l22.11-38.39,4.18,2.33-22.33,38.39c-5.59,9.54-12.57,19.31-22.81,19.54ZM776,444.13v-3.72c-.46-11.17-5.35-23.73-14.89-26.53a18.16,18.16,0,0,0-3.49-.46c-7.21,0-14,5.58-18.61,11.63-25.6,33.51-44.21,101.92-52.36,143.57C727.86,543.49,776,492.3,776,444.13Z" transform="translate(0 -0.01)"/><path d="M716.46,805s-2.56-17-3.26-28.62l-.47-9.54c-.46-5.81-.69-12.1-.69-18.61,0-45.61,10.23-105.64,30.71-155,2.09-4.88,5.59-6.75,9.08-6.75a9,9,0,0,1,8.84,9.31,12.31,12.31,0,0,1-.93,4.89c-22.34,53-37,118.9-38.4,183.12,8.15-60.5,20.25-122.86,51.43-177.54,6.51-11.86,19.08-30.94,31.41-36.06a18.46,18.46,0,0,1,7.91-1.63,12.3,12.3,0,0,1,3.95.46c11.17,3,14.9,15.13,14.9,29.09,0,15.12-4.19,32.34-8.85,43.51,13.5-1.4,27-3.49,36.07-10.47l3,3.49c-10.71,8.38-26.06,10.24-41.42,11.87-7.45,15.35-23.5,33.5-38.39,33.5a17.22,17.22,0,0,1-10.24-3.26A12.39,12.39,0,0,1,766,670.3a9,9,0,0,1-.47-3.49c0-8.61,10-18.38,33-22.34C803,634,814.65,599.1,816,588.4a28.81,28.81,0,0,0,.24-4.42c0-6.05-1.86-10.24-6.52-10.24a11.71,11.71,0,0,0-3.72.69c-11.17,4.66-23.5,23.74-29.32,34.21-34.43,60.26-45.37,130.53-53.51,197.08Zm62.12-133.09c7.45-3,14.2-15.13,17.69-22.34-7.22,1.4-13.73,3.49-18.85,7.21-3.72,2.33-7.21,6.52-7.21,10.24l.23,1.86c.7,2.33,3,3.49,5.58,3.49A4.62,4.62,0,0,0,778.58,671.93Z" transform="translate(0 -0.01)"/><path d="M848.86,648.66c0-22.57,10.93-53,37.46-71.43,5.12-3.49,13.73-7.22,20.71-7.22,3,0,5.81.7,7.68,2.33,2.56,2.56,3,5.59,3,8.84,0,25.13-20.71,44.68-35.83,44.68a15,15,0,0,1-7.22-1.63C871,632.6,862.59,654,862.59,665.65c0,8.14,3.95,10,11.16,10.47,15.83-.93,47.94-23.5,66.09-42.82l3.25,3.26c-10,11.87-28.62,25.6-48.63,37-6.51,3.72-13.49,7.21-20.94,7.21C859.56,679.84,848.86,673.56,848.86,648.66Zm64.22-67.48c0-1.63,0-3.95-1.17-5.12a3.51,3.51,0,0,0-2.56-.93c-10.47,0-27.92,34.91-32.57,44.91a9.38,9.38,0,0,0,5.12,1.4C894,621.44,913.08,604,913.08,581.18Z" transform="translate(0 -0.01)"/><path d="M950.77,711.72c-7.21-1.4-12.33-7.91-12.33-16.52,0-6.05,2.79-13.27,9.77-20.25-12.79-17.22-18.61-35.13-18.61-51.19,0-30.24,20.24-54,49.56-54h3a33.06,33.06,0,0,1,8.6,1.86,21.65,21.65,0,0,1,9.78,7.68,19.92,19.92,0,0,1,3,10.94c0,17.45-18.61,37.92-31.18,42.11L971,628c12.79-4.42,24.89-22.8,27.22-31.41a26.13,26.13,0,0,0,.7-5.82,15.12,15.12,0,0,0-9.77-14.66,25.37,25.37,0,0,0-7.22-1.63H981c-11.86,0-30.71,14-30.71,43.28,0,12.57,3.49,27.69,12.1,45.84,17.22-12.56,41.18-26.52,59.8-32.81l1.39,4.42c-18.15,6.29-42.11,20.25-59.1,32.58,3.49,7.45,8.38,15.36,8.38,24.2a27.28,27.28,0,0,1-1.17,7.21c-2.55,8.38-9.54,12.8-17.68,12.8Zm9.54-7.68a7.9,7.9,0,0,0,1.86-5.35c0-7.68-8.6-16.76-11.16-20-5.82,5.81-8.15,11.63-8.15,16.52,0,6.28,3.73,10.93,8.84,11.86h1.63A8.86,8.86,0,0,0,960.31,704Z" transform="translate(0 -0.01)"/><path d="M425.61,789.71" transform="translate(0 -0.01)"/><circle class="cls-34" cx="540" cy="540" r="540"/></g></svg>