<svg id="Capa_3" data-name="Capa 3" xmlns="http://www.w3.org/2000/svg" viewBox="0 0 480 480"><defs><style>.cls-1{fill:#ebebe7;}.cls-2{fill:#067bcb;}.cls-3{fill:#226043;}.cls-4{fill:#eae444;}.cls-5{fill:#bf5b3f;}.cls-6{fill:#2d6a4d;}.cls-7{fill:#ebece7;}.cls-8{fill:#cb4f41;}.cls-9{fill:#d44b3d;}.cls-10{fill:#cb5e3b;}.cls-11{fill:#0177cb;}.cls-12{fill:#0378c9;}.cls-13{fill:#e8e23e;}.cls-14{fill:#e8e8e4;}.cls-15{fill:#296646;}.cls-16{fill:#cf4538;}.cls-17{fill:#cd4537;}.cls-18{fill:#e9e9e5;}.cls-19{fill:#b85538;}.cls-20{fill:#097ace;}.cls-21{fill:#0174c8;}.cls-22{fill:#246644;}.cls-23{fill:#d04435;}.cls-24{fill:#ebe342;}.cls-25{fill:#d2483d;}.cls-26{fill:#eaebe6;}</style></defs><path d="M196.11,32.66s-2.22-3.29,8.89-8.78S252.78,2,252.78,2a36.07,36.07,0,0,1,23.33,0c12.22,4.39,44.45,19.74,44.45,19.74s3.33,4.39,3.33,6.58c0,0,8.89-2.19,16.67,1.1S386.11,50.2,386.11,50.2a6.87,6.87,0,0,1,3.33,7.68s7.78-3.29,15.56,0,50,21.93,50,21.93,6.67,3.29,5.56,9.87a7.87,7.87,0,0,1,8.33,7.13c1.11,7.68,2.22,50.45,2.22,50.45a11,11,0,0,1-2.22,8.77s5.55,1.1,5.55,8.78,2.23,45,2.23,45,1.11,6.58-3.34,11c0,0,5.56,1.09,5.56,7.67L480,278.86s0,8.77-4.44,13.16l-46.67,46.06a20,20,0,0,1-12.22,2.19s1.11,5.49-5.56,13.16-50,49.36-50,49.36-4.44,3.29-12.22,3.29A26.4,26.4,0,0,1,340,421.43l-55.56,52.64s-2.22,3.29-11.11,1.1c0,0-3.33,6.58-13.33,4.38s-52.22-29.61-52.22-29.61a8.33,8.33,0,0,1-2.22-5.48,14.16,14.16,0,0,1-13.34-1.1C185.56,439,146.67,416,146.67,416a4.75,4.75,0,0,1-2.23-4.39s-8.88,2.19-15.55-3.29-33.33-18.65-33.33-18.65-8.89-1.09-17.78-17.54c0,0-13.34-39.48-16.67-47.16s2.22-12.06,2.22-12.06S58.89,314,52.22,298.6s-16.66-53.74-16.66-53.74-2.23-7.67,1.11-13.16c0,0-5.56-2.19-12.23-19.74S1.11,141.78,1.11,141.78s-4.44-9.87,4.45-15.36c0,0-3.34-8.77,11.11-17.54S90,74.88,90,74.88s10-5.48,21.11-2.19c0,0-1.11-5.49,8.89-11S181.11,34.3,181.11,34.3,188.89,29.91,196.11,32.66Z" transform="translate(0 0)"/><path class="cls-1" d="M91.89,86.58,19.37,120.27a2.27,2.27,0,0,0-.26,4l39,24.49a37.27,37.27,0,0,0,37.77,1.06l65-35.92a5.51,5.51,0,0,0-.16-9.76l-33-16.88A41,41,0,0,0,91.89,86.58Z" transform="translate(0 0)"/><path class="cls-2" d="M240.52,154.49l-63,40.37a32.48,32.48,0,0,1-33.41.94L97.31,169.4a3.9,3.9,0,0,1,.08-6.86l72.39-38.74a28.73,28.73,0,0,1,27.09,0l43.35,23.27A4.28,4.28,0,0,1,240.52,154.49Z" transform="translate(0 0)"/><path class="cls-3" d="M236.56,244.85l-52.14-27.12a7.31,7.31,0,0,1-.66-12.63l63.1-41.52A27.32,27.32,0,0,1,274.08,162l49.42,24.77a6.34,6.34,0,0,1,1.24,10.58L272,241.1A32.26,32.26,0,0,1,236.56,244.85Z" transform="translate(0 0)"/><path class="cls-4" d="M329.41,176.41,278.47,152.8a5.9,5.9,0,0,1-.82-10.3l45.47-30.44a24,24,0,0,1,23.64-1.7l46.78,22.29a3.77,3.77,0,0,1,.81,6.32L353,173.35A22.31,22.31,0,0,1,329.41,176.41Z" transform="translate(0 0)"/><path class="cls-4" d="M251.53,133.31l-48.27-22.49c-4-1.86-4.22-6.82-.38-8.86L248,77.88a25.75,25.75,0,0,1,22.9-.42l44.3,21.17a3.07,3.07,0,0,1,.53,5.46l-41.29,27.64A23.82,23.82,0,0,1,251.53,133.31Z" transform="translate(0 0)"/><path class="cls-5" d="M174.44,99,130,78.17c-3.86-2-6.28-7.5-2.56-9.67l58.12-24.33c6.73-3.92,17.48-.3,24.44,3.29l27.78,13.16c2.29,1.19,7.62,6.17,5.55,7.68L194.44,96.81C191.11,99,181.58,102.6,174.44,99Z" transform="translate(0 0)"/><path class="cls-6" d="M253.48,12.84,214,32.31a2.12,2.12,0,0,0,.06,3.85L255.67,55a16.32,16.32,0,0,0,14.92-.76L309,31.81a1.85,1.85,0,0,0-.24-3.31L269,12.29A19,19,0,0,0,253.48,12.84Z" transform="translate(0 0)"/><path class="cls-7" d="M320.24,38.3,279.63,61.75a2.76,2.76,0,0,0,.06,4.63L322.49,89a14.68,14.68,0,0,0,15.37-.93l39.52-27a2.4,2.4,0,0,0-.24-4L336.21,37.63A16.92,16.92,0,0,0,320.24,38.3Z" transform="translate(0 0)"/><path class="cls-8" d="M389.71,67.2,347.49,93.87a3,3,0,0,0,.23,5L393.84,122a15.32,15.32,0,0,0,16.25-1.5L451,90a2.62,2.62,0,0,0-.4-4.3L406.61,66A17.64,17.64,0,0,0,389.71,67.2Z" transform="translate(0 0)"/><path class="cls-9" d="M16.47,136.71l52.34,31.48A24.84,24.84,0,0,1,80.2,183.66l19.06,68.8a2.67,2.67,0,0,1-4,2.92L44.6,226.05a10.8,10.8,0,0,1-4.79-5.81L12.34,140A2.83,2.83,0,0,1,16.47,136.71Z" transform="translate(0 0)"/><path class="cls-10" d="M97.18,184.91l51.35,27.42a31.54,31.54,0,0,1,16.29,22.45l10.33,60.35a1.21,1.21,0,0,1-1.76,1.26l-46.89-24A27,27,0,0,1,112.57,255L95.2,186.43A1.37,1.37,0,0,1,97.18,184.91Z" transform="translate(0 0)"/><path class="cls-11" d="M180.67,231.49l51.38,25.35a33.65,33.65,0,0,1,18.83,28.65l2.36,52.61a1.27,1.27,0,0,1-1.86,1.16l-45.9-23.84a33.82,33.82,0,0,1-17.95-25.14l-8.36-57.73A1,1,0,0,1,180.67,231.49Z" transform="translate(0 0)"/><path class="cls-12" d="M48.73,243.32l42.13,23.19a33,33,0,0,1,16,20.51L119,333.07a1.76,1.76,0,0,1-2.56,2L78.83,314.51a31.86,31.86,0,0,1-15-17.89L46.69,245A1.41,1.41,0,0,1,48.73,243.32Z" transform="translate(0 0)"/><path class="cls-13" d="M122.71,284.18l42.14,22.33a31.22,31.22,0,0,1,16.33,23l6,40.88a1.91,1.91,0,0,1-2.86,1.9l-40-23.06a26.81,26.81,0,0,1-12.64-16.61L119.94,286.3A1.91,1.91,0,0,1,122.71,284.18Z" transform="translate(0 0)"/><path class="cls-14" d="M194.66,329.48a3.74,3.74,0,0,1,5.61-3.79L242,350.11a27.14,27.14,0,0,1,14,21.79l2.59,36.19a1.94,1.94,0,0,1-2.85,1.82l-40.52-21.6a26.84,26.84,0,0,1-14-19.61Z" transform="translate(0 0)"/><path class="cls-15" d="M74.39,327l12,36.41a28.62,28.62,0,0,0,13.78,16.25l31.7,16.79a1.85,1.85,0,0,0,2.68-2L127,363.62a24.83,24.83,0,0,0-11.68-15.5l-39-22.6A1.28,1.28,0,0,0,74.39,327Z" transform="translate(0 0)"/><path class="cls-16" d="M139.68,364.18l8.91,34.37a23.72,23.72,0,0,0,11.34,14.69l34.18,19.28a2,2,0,0,0,3-2L192.73,402A25.84,25.84,0,0,0,179,382.18l-37.3-19.58A1.41,1.41,0,0,0,139.68,364.18Z" transform="translate(0 0)"/><path class="cls-17" d="M205.91,399.6l4.94,32.52a18.58,18.58,0,0,0,9.48,13.49l38.17,20.93a2.35,2.35,0,0,0,3.49-2.16l-1.57-28.67a14.13,14.13,0,0,0-7.2-11.53L207.6,398.46A1.13,1.13,0,0,0,205.91,399.6Z" transform="translate(0 0)"/><path class="cls-18" d="M262.73,278.29l1.53,41.52a2.49,2.49,0,0,0,4.11,1.77l47-40a37.27,37.27,0,0,0,13.18-29.09l-.6-32.73a4.78,4.78,0,0,0-7.87-3.5L273,256A27.26,27.26,0,0,0,262.73,278.29Z" transform="translate(0 0)"/><path class="cls-19" d="M338.81,219.43l2,33.52a2.47,2.47,0,0,0,4.12,1.67L389.29,215a26.34,26.34,0,0,0,8.81-21.3l-2.25-36.23a2.4,2.4,0,0,0-4-1.64l-40.81,34.86A35,35,0,0,0,338.81,219.43Z" transform="translate(0 0)"/><path class="cls-20" d="M455.18,101.35l-39.75,36a24.85,24.85,0,0,0-8.14,20.27L410,194.18a2.06,2.06,0,0,0,3.46,1.32l41.06-38.85a22.7,22.7,0,0,0,7.09-17.71l-1.94-35.76A2.7,2.7,0,0,0,455.18,101.35Z" transform="translate(0 0)"/><path class="cls-21" d="M270.91,388.79l-1.62-41.47a21.85,21.85,0,0,1,7.41-17.23L327.8,285a2.8,2.8,0,0,1,4.65,2L334,326a25.62,25.62,0,0,1-8.68,20.21l-50.23,44.35A2.49,2.49,0,0,1,270.91,388.79Z" transform="translate(0 0)"/><path class="cls-22" d="M275.35,461.17l-1.61-41.47a21.85,21.85,0,0,1,7.4-17.23l51.1-45.13a2.8,2.8,0,0,1,4.65,2l1.53,39a25.63,25.63,0,0,1-8.69,20.21L279.5,462.9A2.49,2.49,0,0,1,275.35,461.17Z" transform="translate(0 0)"/><path class="cls-23" d="M350.74,392.16l-1.45-39.94a21.81,21.81,0,0,1,6.63-16.6l45.75-43.47a2.48,2.48,0,0,1,4.17,1.88l1.36,37.62a25.58,25.58,0,0,1-7.77,19.46l-45,42.73A2.22,2.22,0,0,1,350.74,392.16Z" transform="translate(0 0)"/><path class="cls-24" d="M344.29,323.14l-1.5-40.84a22.17,22.17,0,0,1,6.87-17L397,220.88a2.58,2.58,0,0,1,4.32,1.92l1.41,38.46a26,26,0,0,1-8.05,19.9l-46.57,43.69A2.3,2.3,0,0,1,344.29,323.14Z" transform="translate(0 0)"/><path class="cls-25" d="M417.62,292.11l2,32.44a2.73,2.73,0,0,0,4.61,1.76L461,290.84a31.16,31.16,0,0,0,9.54-23.77l-1.33-30.71a3.19,3.19,0,0,0-5.36-2.17l-35.58,32.05A32.15,32.15,0,0,0,417.62,292.11Z" transform="translate(0 0)"/><path class="cls-26" d="M412.76,222.81l1.42,34.35a3,3,0,0,0,5,2.06l39-35.21a24.52,24.52,0,0,0,8.12-19l-1.12-35a2.75,2.75,0,0,0-4.56-2l-38.44,33.14A27.09,27.09,0,0,0,412.76,222.81Z" transform="translate(0 0)"/></svg>